<svg width="135" height="135" viewBox="0 0 135 135" fill="none" xmlns="http://www.w3.org/2000/svg">
<g filter="url(#filter0_d)">
<circle cx="67.5" cy="61.5" r="55.5" fill="#00979C"/>
<g clip-path="url(#clip0)">
<path d="M35.9494 73.67L32.2585 85.718H35.1628L35.829 83.4731H39.4294L40.0776 85.718H43.2359L39.5453 73.67H35.9494ZM36.5585 81.0496L37.6549 77.3024L38.739 81.0496H36.5585ZM50.1754 80.2214C50.1328 80.1756 50.0883 80.1315 50.0421 80.0893C50.133 80.055 50.2216 80.0184 50.3082 79.9785C50.6504 79.8233 50.9608 79.6059 51.2235 79.3373C51.4871 79.0637 51.6926 78.7395 51.8276 78.3843C51.9682 78.0223 52.0396 77.6064 52.0396 77.1489C52.0396 76.5181 51.9257 75.9726 51.7019 75.5269C51.4792 75.0804 51.1437 74.7 50.7286 74.4234C50.3217 74.1506 49.8267 73.9535 49.2573 73.8379C48.71 73.7268 48.0936 73.67 47.4257 73.67H43.658V85.718H46.5475V81.0105H46.6333C46.9493 81.0105 47.2128 81.08 47.4387 81.2234C47.6628 81.3654 47.8346 81.5749 47.9648 81.8651L49.7111 85.718H53.0731L50.9513 81.4202C50.6943 80.8983 50.4403 80.5066 50.1754 80.2214V80.2214ZM48.9187 77.9101C48.8347 78.0699 48.7131 78.2067 48.5644 78.3089C48.401 78.4236 48.1982 78.5117 47.9609 78.5707C47.7103 78.6334 47.4243 78.6649 47.1105 78.6649H46.5475V76.1286H47.1825C47.8439 76.1286 48.3354 76.2324 48.6434 76.4374C48.9117 76.616 49.0421 76.9169 49.0421 77.3578C49.0421 77.571 49.0016 77.7518 48.9187 77.9101V77.9101ZM61.5387 75.1008C61.0522 74.6118 60.4386 74.2456 59.7151 74.0131C59.0098 73.7856 58.1796 73.67 57.248 73.67H53.4265V85.718H56.753C57.8264 85.718 58.7654 85.5718 59.5435 85.2836C60.3337 84.9914 60.9937 84.5673 61.5047 84.0234C62.0148 83.4807 62.395 82.8176 62.6341 82.053C62.8686 81.3044 62.9873 80.4624 62.9873 79.5505C62.9873 78.5564 62.8683 77.6843 62.6332 76.9585C62.3931 76.215 62.0249 75.5901 61.5387 75.1008V75.1008ZM59.1762 82.4228C58.6746 82.9801 57.9468 83.2509 56.9513 83.2509H56.3157V76.1371H57.104C57.6611 76.1371 58.1287 76.2158 58.4935 76.3713C58.8472 76.5218 59.1208 76.7344 59.3301 77.0207C59.5438 77.3142 59.6987 77.6826 59.7904 78.1149C59.8869 78.5721 59.9361 79.1019 59.9361 79.6897C59.9361 80.9433 59.6805 81.8629 59.1762 82.4228V82.4228ZM69.9476 81.3345C69.9476 81.7498 69.9093 82.1039 69.8331 82.3868C69.7623 82.6508 69.6579 82.8665 69.5224 83.0277C69.3942 83.1814 69.2263 83.297 69.037 83.362C68.823 83.4385 68.5494 83.477 68.2232 83.477C67.8781 83.477 67.5935 83.4329 67.3773 83.3454C67.1787 83.2676 67.0029 83.1409 66.8663 82.977C66.7297 82.8125 66.6318 82.6061 66.5753 82.3626C66.5123 82.0938 66.4805 81.7774 66.4805 81.4214V73.67H63.5913V81.5519C63.5913 82.2031 63.672 82.801 63.8306 83.3286C63.9957 83.8767 64.2679 84.3505 64.64 84.736C65.012 85.1213 65.4991 85.4194 66.0876 85.621C66.6596 85.8182 67.3509 85.918 68.1419 85.918C68.8492 85.918 69.4982 85.8182 70.0702 85.621C70.6551 85.4205 71.1593 85.1165 71.5691 84.7172C71.9791 84.3173 72.2971 83.8139 72.5145 83.2211C72.7282 82.639 72.8368 81.9574 72.8368 81.195V73.67H69.9476V81.3345V81.3345ZM74.3143 76.0938H76.9071V83.2771H74.3143V85.718H82.4253V83.2771H79.8325V76.0938H82.4253V73.67H74.3143V76.0938ZM90.4658 80.535L87.2358 73.67H83.9655V85.718H86.6565V78.7226L89.9037 85.718H93.1573V73.67H90.4658V80.535V80.535ZM102.511 75.0955C101.667 74.0226 100.403 73.4788 98.7529 73.4788C98.047 73.4788 97.3738 73.6039 96.7518 73.8505C96.121 74.1005 95.5636 74.4897 95.0949 75.0083C94.6303 75.5224 94.2613 76.1835 93.999 76.9729C93.7394 77.7521 93.6078 78.6866 93.6078 79.7507C93.6078 81.7164 94.026 83.2456 94.8505 84.2968C95.6941 85.3727 96.9587 85.918 98.6086 85.918C99.3148 85.918 99.9885 85.7928 100.611 85.5462C101.242 85.2959 101.799 84.9065 102.267 84.3887C102.731 83.875 103.1 83.2141 103.363 82.4242C103.622 81.6452 103.754 80.7107 103.754 79.6461C103.754 77.6748 103.336 76.1436 102.511 75.0955V75.0955ZM100.609 81.3556C100.527 81.8002 100.398 82.175 100.226 82.47C100.063 82.751 99.8609 82.9568 99.6092 83.0988C99.3583 83.2403 99.0459 83.312 98.6809 83.312C97.9587 83.312 97.4554 83.0431 97.1421 82.4905C96.7979 81.8834 96.6233 80.9267 96.6233 79.6461C96.6233 79.0448 96.6666 78.5046 96.7526 78.0415C96.8353 77.5977 96.9652 77.2234 97.1396 76.9284C97.3055 76.6464 97.508 76.44 97.7585 76.2974C98.0057 76.1565 98.3159 76.0851 98.6809 76.0851C99.4087 76.0851 99.9135 76.3533 100.224 76.9051C100.565 77.5125 100.739 78.47 100.739 79.7507C100.739 80.3536 100.695 80.8935 100.609 81.3556V81.3556ZM99.5799 38.6142H100.093V39.962H100.456V38.6142H100.973V38.2795H99.5799V38.6142ZM102.238 38.2795L101.888 39.4263L101.525 38.2795H101.05V39.962H101.392V38.8872L101.732 39.962H102.044L102.365 38.9151V39.962H102.706V38.2795H102.238ZM85.508 70.8376C80.9276 70.8376 77.0114 69.2932 73.5648 66.1343C71.4358 64.1835 69.6804 61.7935 68.0654 59.3084C66.4507 61.7935 64.6951 64.1835 62.5663 66.1343C58.863 69.5283 54.6172 71.0586 49.5885 70.812C39.9989 70.7704 32.2101 63.2024 32.2101 53.906C32.2101 44.5841 40.0416 37 49.6678 37C54.9355 37 59.3706 38.7432 63.2252 42.329C65.0767 44.0514 66.6397 46.0495 68.0654 48.14C69.4912 46.0495 71.0544 44.0514 72.9057 42.329C76.7603 38.7432 81.1953 37 86.463 37C96.0895 37 103.921 44.5841 103.921 53.906C103.921 63.2024 96.1323 70.7704 86.5423 70.812C86.1978 70.829 85.8529 70.8376 85.508 70.8376ZM71.5724 53.6805C73.483 56.7803 75.3373 59.6656 77.596 61.7353C80.1455 64.0719 82.8328 65.0331 86.3066 64.8494L86.463 64.8452C92.799 64.8452 97.954 59.938 97.954 53.906C97.954 47.8743 92.799 42.9668 86.463 42.9668C82.7226 42.9668 79.706 44.1524 76.9698 46.6977C74.9262 48.5989 73.2389 51.0348 71.5724 53.6805V53.6805ZM49.6678 42.9668C43.3318 42.9668 38.1769 47.8743 38.1769 53.906C38.1769 59.938 43.3318 64.8452 49.6678 64.8452L49.8245 64.8494C53.2986 65.0331 55.9853 64.0719 58.5348 61.7353C60.7935 59.6656 62.6481 56.7803 64.5584 53.6805C62.8919 51.0348 61.2046 48.5989 59.1613 46.6977C56.4248 44.1524 53.4083 42.9668 49.6678 42.9668V42.9668Z" fill="white"/>
<path d="M87.252 51.7376V48.5019H83.8842V51.7376H80.6488V55.0891H83.8842V58.3486H87.252V55.0891H90.4876V51.7376H87.252ZM44.8231 51.6971H55.4577V55.1538H44.8231V51.6971Z" fill="white"/>
</g>
</g>
<defs>
<filter id="filter0_d" x="0" y="0" width="135" height="135" filterUnits="userSpaceOnUse" color-interpolation-filters="sRGB">
<feFlood flood-opacity="0" result="BackgroundImageFix"/>
<feColorMatrix in="SourceAlpha" type="matrix" values="0 0 0 0 0 0 0 0 0 0 0 0 0 0 0 0 0 0 127 0"/>
<feOffset dy="6"/>
<feGaussianBlur stdDeviation="6"/>
<feColorMatrix type="matrix" values="0 0 0 0 0 0 0 0 0 0 0 0 0 0 0 0 0 0 0.18 0"/>
<feBlend mode="normal" in2="BackgroundImageFix" result="effect1_dropShadow"/>
<feBlend mode="normal" in="SourceGraphic" in2="effect1_dropShadow" result="shape"/>
</filter>
<clipPath id="clip0">
<rect width="72" height="48.9312" fill="white" transform="translate(32 37)"/>
</clipPath>
</defs>
</svg>
