<svg width="920" height="229" viewBox="0 0 920 229" fill="none" xmlns="http://www.w3.org/2000/svg">
<g clip-path="url(#clip0_301_7)">
<path d="M257.469 230C255.627 229.007 254.392 227.529 252.859 227.091C220.689 217.909 199.462 197.071 188.535 165.839C184.594 154.574 182.953 142.567 184.076 130.564C186.472 104.965 196.878 83.0443 216.479 66.2306C230.023 54.6125 245.847 47.3954 263.813 44.9135C283.44 42.2022 301.981 45.0841 319.683 53.8457C319.926 53.9663 320.312 53.8014 320.952 53.7379C320.952 50.6726 320.952 47.5782 320.952 44.2442C337.682 44.2442 354.09 44.2442 371 44.2442C371 105.882 371 167.472 371 229.531C354.646 230 338.292 230 321.469 229.545C321 226.466 321 223.841 321 221.352C320.485 221.171 320.318 221.044 320.202 221.081C312.052 223.663 303.905 226.258 295.773 228.9C295.734 228.913 295.92 229.618 296 230C283.313 230 270.625 230 257.469 230ZM255.425 173.039C267.012 181.57 284.819 181.972 297.582 174.659C316.255 163.96 325.439 142.893 317.006 121.692C311.232 107.173 300.319 97.8003 285.376 95.3129C267.958 92.4134 252.671 98.1296 242.367 113.335C235.898 122.881 233.473 133.426 235.854 145.164C238.306 157.246 244.824 166.128 255.425 173.039Z" fill="white"/>
<path d="M49.5312 1C49.9999 17.4887 49.9999 33.9775 49.9999 50.1503C58.1881 48.3835 66.2466 46.197 74.4498 45.0152C81.1045 44.0564 88.0146 43.5068 94.6672 44.1865C107.747 45.5229 119.98 49.8677 131.173 56.9925C146.853 66.9731 158.109 80.5924 164.94 97.8166C169.81 110.096 170.98 123.032 170.991 136.106C171.018 167.091 171 198.077 171 229.531C154.646 230 138.291 230 121.469 229.531C121 196.76 121.039 164.457 120.98 132.154C120.957 119.975 116.953 109.645 107.228 101.63C90.3049 87.6839 65.5347 93.2563 55.0658 111.626C51.2647 118.295 50.1258 125.677 50.0819 133.091C49.891 165.393 49.9999 197.697 49.9999 230C33.6884 230 17.377 230 1.03271 230C1.03271 153.791 1.03271 77.5815 1.03271 1C17.0189 1 33.0407 1 49.5312 1Z" fill="white"/>
<path d="M568.469 230C568 194.53 567.906 159.059 568.036 123.59C568.113 102.444 574.811 83.7643 588.788 67.5667C602.366 51.8301 619.408 42.4772 639.586 39.1241C661.406 35.4983 682.116 40.0241 700.324 52.2984C719.224 65.0399 731.411 82.8589 736.114 105.691C741.744 133.018 735.142 157.211 717.858 178.365C706.077 192.784 690.379 201.873 672.09 205.964C655.337 209.711 638.853 208.785 622.784 202.364C621.484 201.844 619.892 202.055 618 201.889C618 211.137 618 220.1 618 229.531C601.646 230 585.292 230 568.469 230ZM642.653 89.9975C626.086 94.8222 615.38 113.037 618.803 129.53C622.199 145.893 634.061 155.34 647.573 157.793C667.67 161.442 690.608 143.634 687.342 119.956C685.862 109.22 681.775 101.177 673.494 95.1512C664.501 88.6079 654.494 85.8968 642.653 89.9975Z" fill="white"/>
<path d="M385.469 231C384.667 196.44 384.052 161.88 384.09 127.32C384.12 100.516 393.332 77.2557 414.045 59.6057C427.316 48.2976 442.826 41.8514 460.436 39.8582C484.372 37.149 505.439 43.9681 523.742 58.5697C538.399 70.2629 547.892 85.8296 552.075 104.508C557.598 129.164 553.62 152.247 539.401 172.75C527.086 190.508 509.893 202.35 488.306 207.013C470.629 210.832 453.453 209.619 436.795 202.344C436.086 202.034 435.203 202.124 434 201.979C434 211.475 434 220.769 434 230.531C417.979 231 401.958 231 385.469 231ZM438.943 107.527C435.275 114.157 433.997 121.148 434.947 128.735C437.282 147.383 454.98 162.101 474.953 158.799C492.952 155.824 505.949 139.506 504.092 120.461C502.374 102.841 487.433 89.544 470.221 89.1423C456.688 88.8265 446.412 95.5563 438.943 107.527Z" fill="white"/>
<path d="M812.469 232C812 223.51 812 215.02 812 206.526C780.9 196.042 761.486 174.842 753.233 143.395C752.292 139.809 752.063 135.953 752.051 132.22C751.958 103.723 752 75.2252 752 46.3639C768.13 46.3639 784.204 46.3639 801 46.3639C801 47.6423 801 49.2202 801 50.7981C801 74.1303 801.001 97.4625 800.999 120.795C800.999 128.351 802.228 135.715 806.08 142.253C815.163 157.671 835.857 165.557 853.233 155.462C866.337 147.849 871.761 136.288 871.922 121.943C872.203 96.8088 872 71.6689 872 46C888.191 46 904.127 46 920.531 46C921 78.3542 921 110.708 920.592 143.536C919.333 146.632 918.605 149.302 917.611 151.869C907.209 178.752 888.937 197.539 861 206.421C861 215.027 861 223.514 861 232C844.979 232 828.958 232 812.469 232Z" fill="white"/>
</g>
<defs>
<clipPath id="clip0_301_7">
<rect width="920" height="229" fill="white"/>
</clipPath>
</defs>
</svg>
