<svg width="135" height="135" viewBox="0 0 135 135" fill="none" xmlns="http://www.w3.org/2000/svg">
<g filter="url(#filter0_d)">
<circle cx="67.5" cy="61.5" r="55.5" fill="white"/>
<g clip-path="url(#clip0)">
<path d="M62.9454 48.2922L60.2221 78.8006L47.9805 82.1943L35.7727 78.8053L33.0521 48.2922H62.9454Z" fill="#E44D26"/>
<path d="M47.9988 79.6002L57.8906 76.8579L60.2177 50.787H47.9988V79.6002Z" fill="#F16529"/>
<path d="M42.7047 58.2718H47.9987V54.5295H38.6148L38.7043 55.5334L39.6242 65.8463H47.9987V62.104H43.0467L42.7047 58.2718V58.2718ZM43.5481 67.7175H39.7914L40.3156 73.5935L47.9815 75.7214L47.9987 75.7167V71.8231L47.9823 71.8275L43.8146 70.7021L43.5481 67.7175V67.7175Z" fill="#EBEBEB"/>
<path d="M35.8334 40H37.7351V41.8789H39.4749V40H41.3768V45.6899H39.475V43.7846H37.7353V45.6899H35.8335V40H35.8334ZM43.8776 41.8869H42.2036V40H47.4548V41.8869H45.7798V45.6899H43.878V41.8869H43.8778H43.8776ZM48.2882 40H50.2712L51.491 41.9993L52.7097 40H54.6935V45.6899H52.7994V42.8697L51.491 44.8928H51.4582L50.149 42.8697V45.6899H48.2882V40ZM55.6399 40H57.5423V43.8092H60.2168V45.6899H55.6398V40H55.6399Z" fill="black"/>
<path d="M47.9859 65.8463H52.5941L52.1596 70.6998L47.9857 71.8263V75.7197L55.6577 73.5935L55.714 72.9612L56.5935 63.1089L56.6848 62.104H47.9859V65.8463ZM47.9859 58.2626V58.2718H57.0253L57.1003 57.4307L57.2709 55.5334L57.3603 54.5295H47.9859V58.2627V58.2626Z" fill="white"/>
</g>
<g clip-path="url(#clip1)">
<path d="M96.5088 41.5669H94.0203L96.6087 44.3772V45.7137H91.2761V44.1485H93.8645L91.2761 41.3382V40H96.5104L96.5088 41.5669ZM90.2174 41.5669H87.7256L90.3173 44.3772V45.7137H84.9831V44.1485H87.5714L84.9831 41.3382V40H90.2174V41.5669ZM83.987 41.6313H81.3021V44.0841H83.987V45.7154H79.3913V40H83.987V41.6313Z" fill="#131313"/>
<path d="M75.7307 78.9458L73 48.3241H103L100.266 78.9407L87.9814 82.3455L75.7307 78.9458Z" fill="#1572B6"/>
<path d="M88 79.7437L97.9266 76.991L100.261 50.8277H88V79.7437Z" fill="#33A9DC"/>
<path d="M88 61.9214H92.9701L93.3123 58.0762H88V54.3224H97.4184L97.3286 55.3303L96.4054 65.6803H88V61.9214Z" fill="white"/>
<path d="M88.0203 71.6753H88.0034L83.821 70.5455L83.5534 67.5505H79.786L80.3128 73.4472L88.0068 75.5884H88.0288V71.6753H88.0203Z" fill="#EBEBEB"/>
<path d="M92.6516 65.5161L92.1993 70.5421L88.0102 71.6719V75.585L95.7092 73.4506L95.7651 72.8154L96.419 65.5144H92.6516V65.5161Z" fill="white"/>
<path d="M88.0135 54.3224V58.0779H78.9441L78.8662 57.2343L78.6951 55.3303L78.6053 54.3224H88.0135ZM88 61.9214V65.6769H83.865L83.7922 64.8333L83.6211 62.9293L83.5313 61.9214H87.9983H88Z" fill="#EBEBEB"/>
</g>
</g>
<defs>
<filter id="filter0_d" x="0" y="0" width="135" height="135" filterUnits="userSpaceOnUse" color-interpolation-filters="sRGB">
<feFlood flood-opacity="0" result="BackgroundImageFix"/>
<feColorMatrix in="SourceAlpha" type="matrix" values="0 0 0 0 0 0 0 0 0 0 0 0 0 0 0 0 0 0 127 0"/>
<feOffset dy="6"/>
<feGaussianBlur stdDeviation="6"/>
<feColorMatrix type="matrix" values="0 0 0 0 0 0 0 0 0 0 0 0 0 0 0 0 0 0 0.18 0"/>
<feBlend mode="normal" in2="BackgroundImageFix" result="effect1_dropShadow"/>
<feBlend mode="normal" in="SourceGraphic" in2="effect1_dropShadow" result="shape"/>
</filter>
<clipPath id="clip0">
<rect width="30" height="42.3012" fill="white" transform="translate(33 40)"/>
</clipPath>
<clipPath id="clip1">
<rect width="30" height="42.3456" fill="white" transform="translate(73 40)"/>
</clipPath>
</defs>
</svg>
