<svg width="135" height="135" viewBox="0 0 135 135" fill="none" xmlns="http://www.w3.org/2000/svg">
<g filter="url(#filter0_d)">
<circle cx="67.5" cy="61.5" r="55.5" fill="#8CC84B"/>
<g clip-path="url(#clip0)">
<path d="M64.3681 23.6843C66.2648 22.5877 68.7352 22.5827 70.6303 23.6843C80.1642 29.1258 89.701 34.5587 99.2333 40.0035C101.026 41.0236 102.225 43.0391 102.207 45.1258V77.8638C102.221 80.0369 100.903 82.1005 99.0112 83.0975C89.5087 88.509 80.0111 93.9271 70.5101 99.3386C68.5742 100.457 66.0542 100.371 64.1788 99.1608C61.3299 97.4927 58.4761 95.8328 55.627 94.1663C55.0448 93.8157 54.3885 93.5366 53.9774 92.9665C54.3409 92.4717 54.9906 92.41 55.5186 92.194C56.7078 91.8121 57.8 91.1989 58.8924 90.604C59.1687 90.413 59.506 90.4862 59.7708 90.6571C62.2069 92.068 64.6215 93.5198 67.0658 94.9172C67.5872 95.2213 68.1152 94.8176 68.5609 94.5666C77.8858 89.2432 87.2221 83.9399 96.5454 78.6148C96.8909 78.4469 97.0818 78.0765 97.0538 77.6943C97.0603 66.8947 97.0554 56.0932 97.057 45.2936C97.0965 44.86 96.8481 44.4612 96.4599 44.2837C86.9903 38.897 77.5256 33.502 68.0577 28.1139C67.8937 28 67.6993 27.9389 67.5003 27.9386C67.3012 27.9383 67.1067 27.9989 66.9423 28.1123C57.4744 33.502 48.0114 38.902 38.5434 44.2884C38.1566 44.4662 37.8969 44.8583 37.943 45.2936C37.9446 56.0932 37.943 66.8947 37.943 77.696C37.9266 77.8825 37.9671 78.0696 38.0592 78.2321C38.1512 78.3946 38.2904 78.5247 38.4579 78.6049C40.9845 80.0521 43.5143 81.4891 46.0425 82.9313C47.4668 83.7057 49.2155 84.1658 50.7848 83.5725C52.1695 83.0708 53.1402 81.6435 53.1138 80.1583C53.1269 69.4217 53.1073 58.6835 53.1236 47.9486C53.089 47.472 53.5366 47.0782 53.9954 47.1231C55.2094 47.1148 56.425 47.1066 57.639 47.1264C58.1457 47.1148 58.4944 47.628 58.4317 48.1082C58.4268 58.9128 58.4448 69.7176 58.4236 80.5221C58.4268 83.4016 57.2556 86.5349 54.6187 87.9438C51.3702 89.6436 47.3551 89.2831 44.1458 87.6532C41.3675 86.2525 38.7162 84.5995 35.9872 83.0989C34.0908 82.1074 32.7795 80.0356 32.7929 77.8641V45.1258C32.773 42.9959 34.0199 40.9438 35.8687 39.9386C45.3696 34.5227 54.8688 29.1027 64.3681 23.6843Z" fill="white"/>
<path d="M72.6567 46.3622C76.8004 46.0928 81.2365 46.2026 84.9653 48.2645C87.8523 49.8446 89.4528 53.1609 89.5038 56.4006C89.4231 56.8376 88.9709 57.0786 88.5579 57.0487C87.3556 57.047 86.1531 57.0652 84.9508 57.0404C84.4408 57.0602 84.1444 56.5852 84.0804 56.1298C83.735 54.5797 82.898 53.0445 81.4536 52.2968C79.2362 51.1754 76.6653 51.2318 74.2474 51.2552C72.4823 51.3499 70.5842 51.5043 69.0888 52.5527C67.9408 53.3469 67.5921 54.9501 68.0018 56.2413C68.3881 57.1684 69.4476 57.4675 70.3145 57.7432C75.3083 59.0624 80.6 58.9312 85.4984 60.6673C87.5264 61.3751 89.5103 62.751 90.2045 64.8958C91.1125 67.7704 90.7145 71.2063 88.6897 73.514C87.0478 75.413 84.6563 76.4466 82.2712 77.008C79.0981 77.7226 75.8052 77.7408 72.5828 77.4235C69.5528 77.0746 66.3996 76.2705 64.0605 74.1852C62.0603 72.4309 61.0833 69.6975 61.1803 67.0593C61.2035 66.6138 61.6427 66.3031 62.0652 66.3397C63.2759 66.3298 64.4866 66.3265 65.6973 66.3413C66.1809 66.3064 66.5394 66.7285 66.5642 67.1889C66.7876 68.6658 67.3371 70.2159 68.6121 71.0915C71.0727 72.695 74.1602 72.5852 76.9777 72.6301C79.312 72.5255 81.9322 72.4939 83.8371 70.9355C84.8421 70.0467 85.1399 68.5596 84.8683 67.2803C84.5741 66.2002 83.4554 65.6968 82.4948 65.3677C77.5651 63.7926 72.2142 64.3641 67.3322 62.5829C65.3502 61.8754 63.4336 60.5377 62.6722 58.481C61.6097 55.5701 62.0965 51.9696 64.3335 49.7398C66.5146 47.5218 69.6631 46.6676 72.6567 46.3619V46.3622Z" fill="white"/>
</g>
</g>
<defs>
<filter id="filter0_d" x="0" y="0" width="135" height="135" filterUnits="userSpaceOnUse" color-interpolation-filters="sRGB">
<feFlood flood-opacity="0" result="BackgroundImageFix"/>
<feColorMatrix in="SourceAlpha" type="matrix" values="0 0 0 0 0 0 0 0 0 0 0 0 0 0 0 0 0 0 127 0"/>
<feOffset dy="6"/>
<feGaussianBlur stdDeviation="6"/>
<feColorMatrix type="matrix" values="0 0 0 0 0 0 0 0 0 0 0 0 0 0 0 0 0 0 0.18 0"/>
<feBlend mode="normal" in2="BackgroundImageFix" result="effect1_dropShadow"/>
<feBlend mode="normal" in="SourceGraphic" in2="effect1_dropShadow" result="shape"/>
</filter>
<clipPath id="clip0">
<rect width="69.7434" height="77.6018" fill="white" transform="translate(32.6283 22.6991)"/>
</clipPath>
</defs>
</svg>
