<svg width="181" height="34" viewBox="0 0 181 34" fill="none" xmlns="http://www.w3.org/2000/svg">
<path d="M61.3987 0.669899H51.6762V13.4167H41.5539V0.669899H31.83V32.738H41.5539V20.1248H51.6762V32.738H61.3987V0.669899ZM95.2275 26.296V0.669899H85.5045V32.738H103.087L104.55 26.296H95.2275ZM78.3131 0.669899H68.5906V32.7384H78.3131V0.669899ZM117.737 0.669899H108.015V32.7384H117.737V0.669899ZM165.681 8.85404C165.681 7.11049 167.414 6.30433 170.208 6.30433C173.272 6.30433 176.605 6.9756 178.867 7.91847L178.069 0.939228C175.536 0.402398 173.272 0 169.145 0C161.286 0 155.96 3.12072 155.96 9.66157C155.96 20.9291 171.146 18.6501 171.146 23.8826C171.146 25.8936 169.678 26.9655 166.08 26.9655C162.889 26.9655 157.957 25.8936 155.027 24.4176L156.096 31.7992C159.023 32.8729 163.019 33.4079 166.217 33.4079C174.339 33.4079 181 30.7237 181 22.6726C181 11.9424 165.681 13.953 165.681 8.85404ZM138.25 25.0893C147.3 25.0893 153.029 20.3922 153.029 12.2099C153.029 3.21961 146.904 0 136.915 0C133.052 0 128.388 0.267504 125.06 0.669899V32.738H134.786V25.0893H138.25ZM143.44 12.3425C143.44 16.5027 141.444 19.3204 136.381 19.3204H135.2V6.07055C135.764 6.03865 135.882 6.03866 136.381 6.03866C141.175 6.03866 143.44 8.31858 143.44 12.3425ZM13.1854 25.0893C22.2424 25.0893 27.9688 20.3922 27.9688 12.2099C27.9688 3.21961 21.8422 0 11.8539 0C7.99089 0 3.32882 0.267504 0 0.669899V32.738H9.72117V25.0893H13.1854ZM18.3812 12.3425C18.3812 16.5027 16.3824 19.3204 11.3211 19.3204H10.1589V6.07055C10.7276 6.03865 10.8208 6.03866 11.3211 6.03866C16.1135 6.03866 18.3812 8.31858 18.3812 12.3425Z" fill="white"/>
</svg>
