<svg width="135" height="135" viewBox="0 0 135 135" fill="none" xmlns="http://www.w3.org/2000/svg">
<g filter="url(#filter0_d)">
<circle cx="67.5" cy="61.5" r="55.5" fill="#61DAFB"/>
<g clip-path="url(#clip0)">
<path d="M103 61.1364C103 56.3564 97.0269 51.8264 87.8691 49.0172C89.9825 39.6631 89.0432 32.221 84.9046 29.8383C83.9507 29.2794 82.8353 29.0147 81.6172 29.0147V32.2945C82.2923 32.2945 82.8353 32.4269 83.2903 32.6769C85.2862 33.8241 86.1521 38.1923 85.477 43.8107C85.3155 45.1932 85.0514 46.6493 84.7285 48.1348C81.852 47.4288 78.7114 46.8846 75.4093 46.5316C73.428 43.8107 71.3734 41.3398 69.3041 39.1777C74.0885 34.7213 78.5793 32.2798 81.6319 32.2798V29C77.596 29 72.3127 31.8827 66.9706 36.8833C61.6286 31.9121 56.3453 29.0588 52.3094 29.0588V32.3387C55.3473 32.3387 59.8528 34.7654 64.6372 39.1925C62.5825 41.3545 60.5279 43.8107 58.576 46.5316C55.2593 46.8846 52.1186 47.4288 49.2422 48.1495C48.9046 46.6787 48.6551 45.252 48.479 43.8842C47.7892 38.2659 48.6404 33.8977 50.6217 32.7358C51.062 32.471 51.6343 32.3534 52.3094 32.3534V29.0735C51.0766 29.0735 49.9613 29.3383 48.9927 29.8972C44.8687 32.2798 43.9441 39.7072 46.0722 49.0319C36.9437 51.8558 31 56.3711 31 61.1364C31 65.9164 36.9731 70.4464 46.1309 73.2555C44.0175 82.6097 44.9568 90.0518 49.0954 92.4344C50.0493 92.9933 51.1647 93.2581 52.3975 93.2581C56.4333 93.2581 61.7167 90.3753 67.0587 85.3747C72.4007 90.3459 77.6841 93.1992 81.7199 93.1992C82.9527 93.1992 84.0681 92.9345 85.0367 92.3756C89.1606 89.9929 90.0852 82.5655 87.9572 73.2408C97.0563 70.4317 103 65.9017 103 61.1364V61.1364ZM83.892 51.3263C83.349 53.2236 82.6739 55.1798 81.9107 57.1359C81.309 55.9593 80.6779 54.7826 79.9882 53.606C79.3131 52.4294 78.594 51.2822 77.8748 50.1644C79.9588 50.4733 81.9694 50.8557 83.892 51.3263ZM77.1704 66.9901C76.0257 68.9756 74.8516 70.8582 73.6335 72.6084C71.4468 72.7996 69.2307 72.9026 67 72.9026C64.7839 72.9026 62.5679 72.7996 60.3958 72.6231C59.1777 70.8729 57.989 69.005 56.8443 67.0342C55.7289 65.1075 54.7163 63.1513 53.7917 61.1805C54.7016 59.2097 55.7289 57.2388 56.8296 55.3121C57.9743 53.3266 59.1484 51.444 60.3665 49.6938C62.5532 49.5026 64.7693 49.3996 67 49.3996C69.2161 49.3996 71.4321 49.5026 73.6042 49.6791C74.8223 51.4293 76.011 53.2972 77.1557 55.268C78.2711 57.1947 79.2837 59.1508 80.2083 61.1217C79.2837 63.0925 78.2711 65.0633 77.1704 66.9901ZM81.9107 65.0781C82.7032 67.0489 83.3783 69.0197 83.936 70.9317C82.0135 71.4024 79.9882 71.7995 77.8895 72.1083C78.6086 70.9759 79.3278 69.8139 80.0029 68.6226C80.6779 67.446 81.309 66.2547 81.9107 65.0781ZM67.0294 80.7712C65.6645 79.3593 64.2996 77.7855 62.9494 76.0647C64.2703 76.1236 65.6205 76.1677 66.9853 76.1677C68.3649 76.1677 69.7297 76.1383 71.0652 76.0647C69.7444 77.7855 68.3795 79.3593 67.0294 80.7712ZM56.1105 72.1083C54.0265 71.7995 52.0159 71.4171 50.0934 70.9464C50.6364 69.0491 51.3115 67.093 52.0746 65.1369C52.6763 66.3135 53.3074 67.4901 53.9971 68.6667C54.6869 69.8434 55.3914 70.9906 56.1105 72.1083ZM66.956 41.5016C68.3208 42.9135 69.6857 44.4872 71.0359 46.208C69.715 46.1492 68.3649 46.1051 67 46.1051C65.6205 46.1051 64.2556 46.1345 62.9201 46.208C64.2409 44.4872 65.6058 42.9135 66.956 41.5016ZM56.0958 50.1644C55.3767 51.2969 54.6576 52.4588 53.9825 53.6502C53.3074 54.8268 52.6763 56.0034 52.0746 57.18C51.2821 55.2092 50.607 53.2383 50.0493 51.3263C51.9719 50.8704 53.9971 50.4733 56.0958 50.1644V50.1644ZM42.8141 68.5785C37.6188 66.3576 34.2581 63.4455 34.2581 61.1364C34.2581 58.8273 37.6188 55.9004 42.8141 53.6943C44.0762 53.1501 45.4558 52.6647 46.8793 52.2088C47.7159 55.0915 48.8165 58.0919 50.1814 61.1658C48.8312 64.225 47.7452 67.2107 46.9234 70.0787C45.4704 69.6227 44.0909 69.1227 42.8141 68.5785ZM50.7097 89.5958C48.7138 88.4486 47.8479 84.0804 48.523 78.4621C48.6845 77.0796 48.9486 75.6235 49.2715 74.138C52.148 74.844 55.2886 75.3882 58.5907 75.7412C60.572 78.4621 62.6266 80.933 64.6959 83.095C59.9115 87.5515 55.4207 89.9929 52.3681 89.9929C51.7077 89.9782 51.15 89.8459 50.7097 89.5958V89.5958ZM85.521 78.3885C86.2108 84.0069 85.3596 88.3751 83.3783 89.537C82.938 89.8017 82.3657 89.9194 81.6906 89.9194C78.6527 89.9194 74.1472 87.4926 69.3628 83.0656C71.4174 80.9036 73.4721 78.4474 75.424 75.7264C78.7407 75.3735 81.8814 74.8293 84.7578 74.1086C85.0954 75.5941 85.3596 77.0207 85.521 78.3885V78.3885ZM91.1712 68.5785C89.9091 69.1227 88.5296 69.608 87.106 70.064C86.2695 67.1813 85.1688 64.1809 83.8039 61.107C85.1541 58.0478 86.2401 55.0621 87.062 52.1941C88.5149 52.65 89.8944 53.1501 91.1859 53.6943C96.3812 55.9151 99.7419 58.8273 99.7419 61.1364C99.7273 63.4455 96.3665 66.3723 91.1712 68.5785V68.5785Z" fill="white"/>
<path d="M66.9853 67.8578C70.6894 67.8578 73.6922 64.8485 73.6922 61.1364C73.6922 57.4242 70.6894 54.415 66.9853 54.415C63.2812 54.415 60.2784 57.4242 60.2784 61.1364C60.2784 64.8485 63.2812 67.8578 66.9853 67.8578Z" fill="white"/>
</g>
</g>
<defs>
<filter id="filter0_d" x="0" y="0" width="135" height="135" filterUnits="userSpaceOnUse" color-interpolation-filters="sRGB">
<feFlood flood-opacity="0" result="BackgroundImageFix"/>
<feColorMatrix in="SourceAlpha" type="matrix" values="0 0 0 0 0 0 0 0 0 0 0 0 0 0 0 0 0 0 127 0"/>
<feOffset dy="6"/>
<feGaussianBlur stdDeviation="6"/>
<feColorMatrix type="matrix" values="0 0 0 0 0 0 0 0 0 0 0 0 0 0 0 0 0 0 0.18 0"/>
<feBlend mode="normal" in2="BackgroundImageFix" result="effect1_dropShadow"/>
<feBlend mode="normal" in="SourceGraphic" in2="effect1_dropShadow" result="shape"/>
</filter>
<clipPath id="clip0">
<rect width="72" height="64.2581" fill="white" transform="translate(31 29)"/>
</clipPath>
</defs>
</svg>
