<svg width="18" height="12" viewBox="0 0 18 12" fill="none" xmlns="http://www.w3.org/2000/svg">
<path d="M0.344 11V0.535999H3.832C4.376 0.535999 4.88267 0.589333 5.352 0.695999C5.82133 0.802666 6.22667 0.978667 6.568 1.224C6.92 1.45867 7.192 1.77333 7.384 2.168C7.58667 2.56267 7.688 3.05333 7.688 3.64C7.688 4.44 7.496 5.08533 7.112 5.576C6.73867 6.06667 6.23733 6.41867 5.608 6.632L8.104 11H6.008L3.768 6.904H2.2V11H0.344ZM2.2 5.432H3.64C4.36533 5.432 4.91467 5.28267 5.288 4.984C5.672 4.68533 5.864 4.23733 5.864 3.64C5.864 3.032 5.672 2.61067 5.288 2.376C4.91467 2.14133 4.36533 2.024 3.64 2.024H2.2V5.432ZM13.4258 11.192C12.6898 11.192 11.9858 11.0587 11.3138 10.792C10.6418 10.5253 10.0444 10.1467 9.52175 9.656L10.6098 8.392C11.0044 8.744 11.4524 9.032 11.9538 9.256C12.4551 9.46933 12.9831 9.576 13.5378 9.576C14.1458 9.576 14.6098 9.45867 14.9298 9.224C15.2498 8.98933 15.4098 8.68533 15.4098 8.312C15.4098 8.07733 15.3671 7.88533 15.2818 7.736C15.1964 7.576 15.0738 7.43733 14.9138 7.32C14.7644 7.20267 14.5778 7.096 14.3538 7C14.1404 6.904 13.9058 6.80267 13.6498 6.696L12.2258 6.072C11.9484 5.96533 11.6764 5.832 11.4098 5.672C11.1431 5.512 10.9031 5.32 10.6898 5.096C10.4764 4.872 10.3058 4.61067 10.1778 4.312C10.0498 4.01333 9.98575 3.672 9.98575 3.288C9.98575 2.872 10.0764 2.488 10.2578 2.136C10.4391 1.77333 10.6898 1.45867 11.0098 1.192C11.3298 0.925333 11.7084 0.717333 12.1458 0.568C12.5938 0.418667 13.0844 0.344 13.6178 0.344C14.2578 0.344 14.8658 0.466667 15.4418 0.712C16.0284 0.946666 16.5404 1.26667 16.9778 1.672L16.0178 2.856C15.6658 2.57867 15.2924 2.36 14.8978 2.2C14.5138 2.04 14.0551 1.96 13.5218 1.96C13.0204 1.96 12.6151 2.06667 12.3058 2.28C12.0071 2.49333 11.8578 2.79733 11.8578 3.192C11.8578 3.39467 11.9058 3.57067 12.0018 3.72C12.0978 3.85867 12.2258 3.98667 12.3858 4.104C12.5564 4.21067 12.7484 4.30667 12.9618 4.392C13.1858 4.47733 13.4151 4.568 13.6498 4.664L15.0258 5.256C15.3564 5.384 15.6604 5.53333 15.9378 5.704C16.2151 5.87467 16.4551 6.072 16.6578 6.296C16.8604 6.52 17.0151 6.78133 17.1218 7.08C17.2391 7.368 17.2978 7.704 17.2978 8.088C17.2978 8.51467 17.2071 8.91467 17.0258 9.288C16.8551 9.66133 16.6044 9.992 16.2738 10.28C15.9431 10.5573 15.5378 10.7813 15.0578 10.952C14.5778 11.112 14.0338 11.192 13.4258 11.192Z" fill="#0C0A1F"/>
</svg>
