<svg width="48" height="9" viewBox="0 0 48 9" fill="none" xmlns="http://www.w3.org/2000/svg">
<path d="M6.06555 5.9521C5.69173 5.9521 5.33416 5.89251 4.99285 5.77332C4.65153 5.64871 4.35627 5.50243 4.10705 5.33449L4.51338 4.74125C4.75718 4.89836 5.01452 5.02297 5.2854 5.11507C5.5617 5.20175 5.86238 5.24509 6.18744 5.24509C6.46375 5.24509 6.66691 5.19904 6.79693 5.10694C6.93238 5.01484 7.0001 4.90107 7.0001 4.76563C7.0001 4.70062 6.98655 4.64373 6.95946 4.59497C6.93238 4.5408 6.8782 4.48933 6.79693 4.44057C6.71567 4.39181 6.6019 4.34576 6.45562 4.30242C6.31476 4.25908 6.12785 4.21303 5.89489 4.16427C5.35854 4.05591 4.96576 3.90422 4.71654 3.70918C4.47275 3.51415 4.35085 3.26493 4.35085 2.96154C4.35085 2.60939 4.50255 2.32226 4.80594 2.10013C5.10933 1.87801 5.54274 1.76694 6.10618 1.76694C6.43666 1.76694 6.74547 1.82112 7.0326 1.92947C7.31974 2.03783 7.56624 2.15972 7.77212 2.29517L7.34141 2.87215C7.14637 2.74754 6.93779 2.65003 6.71567 2.5796C6.49354 2.50917 6.26329 2.47395 6.02491 2.47395C5.75945 2.47395 5.56983 2.51729 5.45606 2.60397C5.34229 2.68524 5.2854 2.78818 5.2854 2.91278C5.2854 3.05364 5.36667 3.15929 5.5292 3.22972C5.69173 3.30015 5.95719 3.37599 6.3256 3.45726C6.64524 3.52769 6.908 3.60354 7.11387 3.6848C7.31974 3.76607 7.48227 3.85817 7.60146 3.9611C7.72607 4.05862 7.81275 4.16968 7.86151 4.29429C7.91027 4.4189 7.93465 4.55976 7.93465 4.71687C7.93465 4.89024 7.89401 5.05277 7.81275 5.20446C7.73148 5.35074 7.61229 5.48076 7.45518 5.59454C7.29807 5.70289 7.10303 5.78957 6.87007 5.85458C6.63711 5.9196 6.36894 5.9521 6.06555 5.9521ZM11.2715 5.9521C10.9572 5.9521 10.6647 5.90605 10.3938 5.81395C10.1283 5.72185 9.89538 5.58641 9.69493 5.40762C9.49989 5.22884 9.34549 5.00943 9.23172 4.74938C9.12336 4.48933 9.06919 4.19406 9.06919 3.86359C9.06919 3.53311 9.12878 3.23784 9.24797 2.97779C9.37258 2.71775 9.53781 2.49833 9.74369 2.31955C9.94956 2.14076 10.1906 2.00532 10.4669 1.91322C10.7432 1.8157 11.0331 1.76694 11.3365 1.76694C11.6615 1.76694 11.946 1.82112 12.1898 1.92947C12.439 2.03783 12.6476 2.17056 12.8155 2.32767L12.3686 2.91278C12.2114 2.78818 12.0516 2.69337 11.8891 2.62835C11.732 2.56334 11.564 2.53084 11.3852 2.53084C10.9843 2.53084 10.6593 2.65273 10.4101 2.89653C10.1608 3.13491 10.0362 3.45726 10.0362 3.86359C10.0362 4.06404 10.0687 4.24553 10.1338 4.40806C10.1988 4.57059 10.2882 4.71145 10.4019 4.83064C10.5211 4.94441 10.662 5.0338 10.8245 5.09882C10.987 5.15841 11.1658 5.18821 11.3609 5.18821C11.5884 5.18821 11.7943 5.14487 11.9785 5.05818C12.1681 4.9715 12.3415 4.86857 12.4986 4.74938L12.8887 5.35074C12.6557 5.55119 12.3984 5.70289 12.1166 5.80582C11.8403 5.90334 11.5586 5.9521 11.2715 5.9521Z" fill="#62CCFF"/>
<path d="M14.525 5.85458V0.117259H15.4676V1.59629L15.4107 2.44957H15.4351C15.6085 2.26537 15.8089 2.10555 16.0365 1.97011C16.264 1.83466 16.5322 1.76694 16.841 1.76694C17.3015 1.76694 17.6401 1.9078 17.8568 2.18952C18.0735 2.46582 18.1819 2.86402 18.1819 3.38412V5.85458H17.2392V3.50602C17.2392 3.18096 17.1823 2.94529 17.0686 2.79901C16.9602 2.64732 16.7679 2.57147 16.4916 2.57147C16.2965 2.57147 16.1232 2.61752 15.9715 2.70962C15.8198 2.80172 15.6518 2.94258 15.4676 3.1322V5.85458H14.525ZM21.4131 5.9521C21.1097 5.9521 20.8253 5.90605 20.5598 5.81395C20.2943 5.71643 20.0614 5.57828 19.8609 5.3995C19.6659 5.22072 19.5115 5.0013 19.3977 4.74125C19.2839 4.4812 19.227 4.18594 19.227 3.85546C19.227 3.5304 19.2839 3.24055 19.3977 2.98592C19.5115 2.72587 19.6632 2.50646 19.8528 2.32767C20.0478 2.14347 20.2672 2.00532 20.511 1.91322C20.7602 1.8157 21.0203 1.76694 21.2912 1.76694C21.5891 1.76694 21.8519 1.8157 22.0794 1.91322C22.307 2.00532 22.4993 2.13535 22.6564 2.30329C22.8135 2.46582 22.9327 2.66357 23.014 2.89653C23.0953 3.12949 23.1359 3.38412 23.1359 3.66042C23.1359 3.75252 23.1305 3.84191 23.1196 3.9286C23.1142 4.00986 23.1061 4.07758 23.0953 4.13176H20.1616C20.2158 4.50558 20.3648 4.78188 20.6085 4.96067C20.8523 5.13945 21.1612 5.22884 21.535 5.22884C21.7463 5.22884 21.9413 5.19904 22.1201 5.13945C22.2989 5.07986 22.4776 4.99859 22.6564 4.89565L22.9734 5.48076C22.7621 5.62162 22.521 5.73539 22.2501 5.82208C21.9846 5.90876 21.7056 5.9521 21.4131 5.9521ZM21.3156 2.4902C21.0393 2.4902 20.7955 2.57147 20.5842 2.734C20.3783 2.89653 20.2456 3.14033 20.186 3.46539H22.307C22.2745 3.14033 22.1715 2.89653 21.9982 2.734C21.8302 2.57147 21.6027 2.4902 21.3156 2.4902ZM24.6605 5.85458V1.86446H25.4325L25.5138 2.76651H25.5382C25.744 2.44144 25.9905 2.19494 26.2777 2.02699C26.5702 1.85363 26.8899 1.76694 27.2366 1.76694C27.3991 1.76694 27.5373 1.78049 27.6511 1.80758C27.7703 1.82925 27.8894 1.86988 28.0086 1.92947L27.8136 2.71775C27.6836 2.6744 27.5671 2.64461 27.4642 2.62835C27.3666 2.60668 27.242 2.59585 27.0903 2.59585C26.814 2.59585 26.5486 2.6744 26.2939 2.83152C26.0393 2.98863 25.8091 3.26222 25.6032 3.6523V5.85458H24.6605ZM31.1586 5.9521C30.8552 5.9521 30.5707 5.90605 30.3053 5.81395C30.0398 5.71643 29.8068 5.57828 29.6064 5.3995C29.4113 5.22072 29.2569 5.0013 29.1432 4.74125C29.0294 4.4812 28.9725 4.18594 28.9725 3.85546C28.9725 3.5304 29.0294 3.24055 29.1432 2.98592C29.2569 2.72587 29.4086 2.50646 29.5983 2.32767C29.7933 2.14347 30.0127 2.00532 30.2565 1.91322C30.5057 1.8157 30.7658 1.76694 31.0367 1.76694C31.3346 1.76694 31.5974 1.8157 31.8249 1.91322C32.0525 2.00532 32.2448 2.13535 32.4019 2.30329C32.559 2.46582 32.6782 2.66357 32.7595 2.89653C32.8407 3.12949 32.8814 3.38412 32.8814 3.66042C32.8814 3.75252 32.876 3.84191 32.8651 3.9286C32.8597 4.00986 32.8516 4.07758 32.8407 4.13176H29.9071C29.9612 4.50558 30.1102 4.78188 30.354 4.96067C30.5978 5.13945 30.9066 5.22884 31.2804 5.22884C31.4917 5.22884 31.6868 5.19904 31.8656 5.13945C32.0443 5.07986 32.2231 4.99859 32.4019 4.89565L32.7188 5.48076C32.5076 5.62162 32.2665 5.73539 31.9956 5.82208C31.7301 5.90876 31.4511 5.9521 31.1586 5.9521ZM31.061 2.4902C30.7847 2.4902 30.5409 2.57147 30.3296 2.734C30.1238 2.89653 29.991 3.14033 29.9314 3.46539H32.0525C32.02 3.14033 31.917 2.89653 31.7437 2.734C31.5757 2.57147 31.3482 2.4902 31.061 2.4902ZM35.7875 5.9521C35.5545 5.9521 35.3622 5.87625 35.2105 5.72456C35.0588 5.56745 34.983 5.3697 34.983 5.13132C34.983 4.89295 35.0588 4.69791 35.2105 4.54621C35.3622 4.3891 35.5545 4.31054 35.7875 4.31054C36.0205 4.31054 36.2128 4.3891 36.3645 4.54621C36.5162 4.69791 36.592 4.89295 36.592 5.13132C36.592 5.3697 36.5162 5.56745 36.3645 5.72456C36.2128 5.87625 36.0205 5.9521 35.7875 5.9521ZM39.2787 5.85458V1.86446H40.0507L40.132 2.76651H40.1564C40.3623 2.44144 40.6088 2.19494 40.8959 2.02699C41.1885 1.85363 41.5081 1.76694 41.8548 1.76694C42.0174 1.76694 42.1555 1.78049 42.2693 1.80758C42.3885 1.82925 42.5077 1.86988 42.6269 1.92947L42.4318 2.71775C42.3018 2.6744 42.1853 2.64461 42.0824 2.62835C41.9849 2.60668 41.8602 2.59585 41.7086 2.59585C41.4323 2.59585 41.1668 2.6744 40.9122 2.83152C40.6575 2.98863 40.4273 3.26222 40.2214 3.6523V5.85458H39.2787Z" fill="#62CCFF"/>
<path d="M2.78697 5.94465L8.6029e-06 4.09645V3.49506L2.78697 1.64686V2.43161L0.711418 3.78109V3.81042L2.78697 5.1599V5.94465Z" fill="#979797"/>
<path d="M44.0331 5.87863L46.7687 4.0231V3.56838L44.0331 1.71285V2.29225L46.2407 3.78107V3.81041L44.0331 5.29923V5.87863Z" fill="#979797"/>
</svg>
