<svg width="409" height="400" viewBox="0 0 409 400" fill="none" xmlns="http://www.w3.org/2000/svg">
<rect width="408.163" height="400" fill="white"/>
<g filter="url(#filter0_d)">
<circle cx="103.5" cy="95.5" r="55.5" fill="#8CC84B"/>
<g clip-path="url(#clip0)">
<path d="M100.368 57.6843C102.265 56.5877 104.735 56.5827 106.63 57.6843C116.164 63.1257 125.701 68.5587 135.233 74.0035C137.026 75.0236 138.225 77.039 138.207 79.1258V111.864C138.221 114.037 136.903 116.101 135.011 117.098C125.509 122.509 116.011 127.927 106.51 133.339C104.574 134.457 102.054 134.371 100.179 133.161C97.3299 131.493 94.4762 129.833 91.627 128.166C91.0448 127.816 90.3885 127.537 89.9774 126.966C90.3409 126.472 90.9906 126.41 91.5186 126.194C92.7078 125.812 93.8 125.199 94.8924 124.604C95.1687 124.413 95.506 124.486 95.7708 124.657C98.2069 126.068 100.621 127.52 103.066 128.917C103.587 129.221 104.115 128.818 104.561 128.567C113.886 123.243 123.222 117.94 132.545 112.615C132.891 112.447 133.082 112.077 133.054 111.694C133.06 100.895 133.055 90.0932 133.057 79.2936C133.097 78.8599 132.848 78.4612 132.46 78.2837C122.99 72.897 113.526 67.502 104.058 62.1139C103.894 62 103.699 61.9389 103.5 61.9386C103.301 61.9383 103.107 61.9988 102.942 62.1122C93.4744 67.502 84.0114 72.9019 74.5434 78.2884C74.1566 78.4661 73.897 78.8583 73.943 79.2936C73.9446 90.0932 73.943 100.895 73.943 111.696C73.9266 111.882 73.9671 112.07 74.0592 112.232C74.1513 112.395 74.2904 112.525 74.4579 112.605C76.9845 114.052 79.5143 115.489 82.0425 116.931C83.4668 117.706 85.2155 118.166 86.7848 117.572C88.1696 117.071 89.1402 115.643 89.1138 114.158C89.1269 103.422 89.1073 92.6835 89.1236 81.9486C89.089 81.472 89.5366 81.0782 89.9954 81.123C91.2094 81.1148 92.425 81.1065 93.639 81.1263C94.1457 81.1148 94.4944 81.628 94.4317 82.1082C94.4268 92.9127 94.4448 103.718 94.4236 114.522C94.4268 117.402 93.2556 120.535 90.6187 121.944C87.3702 123.644 83.3551 123.283 80.1458 121.653C77.3675 120.252 74.7162 118.599 71.9872 117.099C70.0908 116.107 68.7795 114.036 68.7929 111.864V79.1258C68.773 76.9958 70.0199 74.9438 71.8687 73.9385C81.3696 68.5227 90.8688 63.1026 100.368 57.6843Z" fill="white"/>
<path d="M108.657 80.3621C112.8 80.0927 117.236 80.2025 120.965 82.2645C123.852 83.8446 125.453 87.1608 125.504 90.4006C125.423 90.8376 124.971 91.0786 124.558 91.0486C123.356 91.047 122.153 91.0651 120.951 91.0404C120.441 91.0602 120.144 90.5852 120.08 90.1298C119.735 88.5797 118.898 87.0444 117.454 86.2968C115.236 85.1754 112.665 85.2318 110.247 85.2552C108.482 85.3498 106.584 85.5042 105.089 86.5527C103.941 87.3469 103.592 88.9501 104.002 90.2412C104.388 91.1683 105.448 91.4675 106.315 91.7432C111.308 93.0624 116.6 92.9312 121.498 94.6673C123.526 95.3751 125.51 96.751 126.204 98.8958C127.113 101.77 126.714 105.206 124.69 107.514C123.048 109.413 120.656 110.447 118.271 111.008C115.098 111.723 111.805 111.741 108.583 111.423C105.553 111.075 102.4 110.27 100.061 108.185C98.0603 106.431 97.0834 103.697 97.1803 101.059C97.2035 100.614 97.6427 100.303 98.0652 100.34C99.2759 100.33 100.487 100.326 101.697 100.341C102.181 100.306 102.539 100.728 102.564 101.189C102.788 102.666 103.337 104.216 104.612 105.092C107.073 106.695 110.16 106.585 112.978 106.63C115.312 106.526 117.932 106.494 119.837 104.935C120.842 104.047 121.14 102.56 120.868 101.28C120.574 100.2 119.455 99.6968 118.495 99.3677C113.565 97.7925 108.214 98.3641 103.332 96.5828C101.35 95.8753 99.4337 94.5377 98.6722 92.481C97.6097 89.5701 98.0965 85.9696 100.334 83.7397C102.515 81.5218 105.663 80.6676 108.657 80.3619V80.3621Z" fill="white"/>
</g>
</g>
<g filter="url(#filter1_d)">
<circle cx="148.5" cy="287.5" r="55.5" fill="#007ACC"/>
<path d="M134 289.33V292.236H143.3V318.626H149.9V292.236H159.2V289.383C159.2 287.778 159.2 286.477 159.129 286.441C159.129 286.388 153.459 286.37 146.573 286.37L134.054 286.423V289.348L134 289.33V289.33ZM175.798 286.352C177.622 286.78 179.017 287.6 180.269 288.902C180.931 289.615 181.914 290.863 181.986 291.184C181.986 291.291 178.892 293.377 177.014 294.536C176.942 294.59 176.656 294.287 176.37 293.823C175.44 292.504 174.492 291.933 173.008 291.826C170.861 291.683 169.431 292.807 169.431 294.679C169.431 295.25 169.538 295.571 169.752 296.034C170.235 297.015 171.13 297.603 173.902 298.816C179.017 301.009 181.235 302.453 182.576 304.522C184.096 306.84 184.436 310.477 183.417 313.205C182.272 316.183 179.482 318.198 175.494 318.858C174.242 319.072 171.38 319.036 170.039 318.804C167.177 318.269 164.441 316.843 162.759 315.006C162.098 314.293 160.828 312.385 160.899 312.26L161.579 311.832L164.262 310.281L166.283 309.104L166.748 309.728C167.338 310.656 168.661 311.904 169.431 312.332C171.756 313.526 174.868 313.366 176.406 311.975C177.068 311.369 177.354 310.727 177.354 309.835C177.354 309.015 177.228 308.641 176.817 308.017C176.245 307.232 175.1 306.59 171.881 305.164C168.179 303.595 166.605 302.596 165.138 301.063C164.297 300.135 163.528 298.691 163.171 297.496C162.902 296.462 162.813 293.93 163.063 292.914C163.832 289.348 166.533 286.851 170.396 286.138C171.648 285.888 174.599 285.995 175.833 286.316L175.798 286.352V286.352Z" fill="white"/>
</g>
<g filter="url(#filter2_d)">
<circle cx="303.5" cy="189.5" r="55.5" fill="#61DAFB"/>
<g clip-path="url(#clip1)">
<path d="M339 189.136C339 184.356 333.027 179.826 323.869 177.017C325.982 167.663 325.043 160.221 320.905 157.838C319.951 157.279 318.835 157.015 317.617 157.015V160.295C318.292 160.295 318.835 160.427 319.29 160.677C321.286 161.824 322.152 166.192 321.477 171.811C321.316 173.193 321.051 174.649 320.728 176.135C317.852 175.429 314.711 174.885 311.409 174.532C309.428 171.811 307.373 169.34 305.304 167.178C310.088 162.721 314.579 160.28 317.632 160.28V157C313.596 157 308.313 159.883 302.971 164.883C297.629 159.912 292.345 157.059 288.309 157.059V160.339C291.347 160.339 295.853 162.765 300.637 167.192C298.583 169.354 296.528 171.811 294.576 174.532C291.259 174.885 288.119 175.429 285.242 176.149C284.905 174.679 284.655 173.252 284.479 171.884C283.789 166.266 284.64 161.898 286.622 160.736C287.062 160.471 287.634 160.353 288.309 160.353V157.074C287.077 157.074 285.961 157.338 284.993 157.897C280.869 160.28 279.944 167.707 282.072 177.032C272.944 179.856 267 184.371 267 189.136C267 193.916 272.973 198.446 282.131 201.256C280.018 210.61 280.957 218.052 285.095 220.434C286.049 220.993 287.165 221.258 288.397 221.258C292.433 221.258 297.717 218.375 303.059 213.375C308.401 218.346 313.684 221.199 317.72 221.199C318.953 221.199 320.068 220.934 321.037 220.376C325.161 217.993 326.085 210.566 323.957 201.241C333.056 198.432 339 193.902 339 189.136V189.136ZM319.892 179.326C319.349 181.224 318.674 183.18 317.911 185.136C317.309 183.959 316.678 182.783 315.988 181.606C315.313 180.429 314.594 179.282 313.875 178.164C315.959 178.473 317.969 178.856 319.892 179.326ZM313.17 194.99C312.026 196.976 310.852 198.858 309.634 200.608C307.447 200.8 305.231 200.903 303 200.903C300.784 200.903 298.568 200.8 296.396 200.623C295.178 198.873 293.989 197.005 292.844 195.034C291.729 193.107 290.716 191.151 289.792 189.181C290.702 187.21 291.729 185.239 292.83 183.312C293.974 181.327 295.148 179.444 296.366 177.694C298.553 177.503 300.769 177.4 303 177.4C305.216 177.4 307.432 177.503 309.604 177.679C310.822 179.429 312.011 181.297 313.156 183.268C314.271 185.195 315.284 187.151 316.208 189.122C315.284 191.093 314.271 193.063 313.17 194.99ZM317.911 193.078C318.703 195.049 319.378 197.02 319.936 198.932C318.013 199.402 315.988 199.799 313.89 200.108C314.609 198.976 315.328 197.814 316.003 196.623C316.678 195.446 317.309 194.255 317.911 193.078ZM303.029 208.771C301.664 207.359 300.3 205.786 298.949 204.065C300.27 204.124 301.62 204.168 302.985 204.168C304.365 204.168 305.73 204.138 307.065 204.065C305.744 205.786 304.38 207.359 303.029 208.771ZM292.11 200.108C290.026 199.799 288.016 199.417 286.093 198.946C286.636 197.049 287.311 195.093 288.075 193.137C288.676 194.314 289.307 195.49 289.997 196.667C290.687 197.843 291.391 198.991 292.11 200.108ZM302.956 169.502C304.321 170.914 305.686 172.487 307.036 174.208C305.715 174.149 304.365 174.105 303 174.105C301.62 174.105 300.256 174.135 298.92 174.208C300.241 172.487 301.606 170.914 302.956 169.502ZM292.096 178.164C291.377 179.297 290.658 180.459 289.982 181.65C289.307 182.827 288.676 184.003 288.075 185.18C287.282 183.209 286.607 181.238 286.049 179.326C287.972 178.87 289.997 178.473 292.096 178.164V178.164ZM278.814 196.578C273.619 194.358 270.258 191.445 270.258 189.136C270.258 186.827 273.619 183.9 278.814 181.694C280.076 181.15 281.456 180.665 282.879 180.209C283.716 183.092 284.817 186.092 286.181 189.166C284.831 192.225 283.745 195.211 282.923 198.079C281.47 197.623 280.091 197.123 278.814 196.578ZM286.71 217.596C284.714 216.449 283.848 212.08 284.523 206.462C284.684 205.08 284.949 203.623 285.272 202.138C288.148 202.844 291.289 203.388 294.591 203.741C296.572 206.462 298.627 208.933 300.696 211.095C295.912 215.551 291.421 217.993 288.368 217.993C287.708 217.978 287.15 217.846 286.71 217.596V217.596ZM321.521 206.389C322.211 212.007 321.36 216.375 319.378 217.537C318.938 217.802 318.366 217.919 317.691 217.919C314.653 217.919 310.147 215.493 305.363 211.066C307.417 208.904 309.472 206.447 311.424 203.726C314.741 203.373 317.881 202.829 320.758 202.109C321.095 203.594 321.36 205.021 321.521 206.389V206.389ZM327.171 196.578C325.909 197.123 324.53 197.608 323.106 198.064C322.269 195.181 321.169 192.181 319.804 189.107C321.154 186.048 322.24 183.062 323.062 180.194C324.515 180.65 325.894 181.15 327.186 181.694C332.381 183.915 335.742 186.827 335.742 189.136C335.727 191.445 332.366 194.372 327.171 196.578V196.578Z" fill="white"/>
<path d="M302.985 195.858C306.689 195.858 309.692 192.849 309.692 189.136C309.692 185.424 306.689 182.415 302.985 182.415C299.281 182.415 296.278 185.424 296.278 189.136C296.278 192.849 299.281 195.858 302.985 195.858Z" fill="white"/>
</g>
</g>
<defs>
<filter id="filter0_d" x="36" y="34" width="135" height="135" filterUnits="userSpaceOnUse" color-interpolation-filters="sRGB">
<feFlood flood-opacity="0" result="BackgroundImageFix"/>
<feColorMatrix in="SourceAlpha" type="matrix" values="0 0 0 0 0 0 0 0 0 0 0 0 0 0 0 0 0 0 127 0"/>
<feOffset dy="6"/>
<feGaussianBlur stdDeviation="6"/>
<feColorMatrix type="matrix" values="0 0 0 0 0 0 0 0 0 0 0 0 0 0 0 0 0 0 0.18 0"/>
<feBlend mode="normal" in2="BackgroundImageFix" result="effect1_dropShadow"/>
<feBlend mode="normal" in="SourceGraphic" in2="effect1_dropShadow" result="shape"/>
</filter>
<filter id="filter1_d" x="81" y="226" width="135" height="135" filterUnits="userSpaceOnUse" color-interpolation-filters="sRGB">
<feFlood flood-opacity="0" result="BackgroundImageFix"/>
<feColorMatrix in="SourceAlpha" type="matrix" values="0 0 0 0 0 0 0 0 0 0 0 0 0 0 0 0 0 0 127 0"/>
<feOffset dy="6"/>
<feGaussianBlur stdDeviation="6"/>
<feColorMatrix type="matrix" values="0 0 0 0 0 0 0 0 0 0 0 0 0 0 0 0 0 0 0.18 0"/>
<feBlend mode="normal" in2="BackgroundImageFix" result="effect1_dropShadow"/>
<feBlend mode="normal" in="SourceGraphic" in2="effect1_dropShadow" result="shape"/>
</filter>
<filter id="filter2_d" x="236" y="128" width="135" height="135" filterUnits="userSpaceOnUse" color-interpolation-filters="sRGB">
<feFlood flood-opacity="0" result="BackgroundImageFix"/>
<feColorMatrix in="SourceAlpha" type="matrix" values="0 0 0 0 0 0 0 0 0 0 0 0 0 0 0 0 0 0 127 0"/>
<feOffset dy="6"/>
<feGaussianBlur stdDeviation="6"/>
<feColorMatrix type="matrix" values="0 0 0 0 0 0 0 0 0 0 0 0 0 0 0 0 0 0 0.18 0"/>
<feBlend mode="normal" in2="BackgroundImageFix" result="effect1_dropShadow"/>
<feBlend mode="normal" in="SourceGraphic" in2="effect1_dropShadow" result="shape"/>
</filter>
<clipPath id="clip0">
<rect width="69.7434" height="77.6018" fill="white" transform="translate(68.6283 56.6991)"/>
</clipPath>
<clipPath id="clip1">
<rect width="72" height="64.2581" fill="white" transform="translate(267 157)"/>
</clipPath>
</defs>
</svg>
