<svg width="135" height="135" viewBox="0 0 135 135" fill="none" xmlns="http://www.w3.org/2000/svg">
<g filter="url(#filter0_d)">
<circle cx="67.5" cy="61.5" r="55.5" fill="#007ACC"/>
<path d="M53 63.3297V66.2361H62.3003V92.6261H68.8999V66.2361H78.2002V63.3832C78.2002 61.7784 78.2002 60.4767 78.1287 60.4411C78.1287 60.3876 72.4591 60.3697 65.5733 60.3697L53.0537 60.4232V63.3475L53 63.3297V63.3297ZM94.7977 60.3519C96.622 60.7798 98.017 61.6001 99.269 62.9017C99.9307 63.615 100.914 64.8632 100.986 65.1841C100.986 65.2911 97.8918 67.3773 96.0139 68.5364C95.9423 68.5898 95.6562 68.2867 95.37 67.8231C94.44 66.5036 93.492 65.933 92.0076 65.826C89.8614 65.6834 88.4305 66.8067 88.4305 68.679C88.4305 69.2496 88.5379 69.5706 88.7525 70.0342C89.2354 71.0149 90.1296 71.6033 92.9018 72.8158C98.017 75.009 100.235 76.4533 101.576 78.5217C103.096 80.8398 103.436 84.4773 102.417 87.2055C101.272 90.1833 98.482 92.1982 94.4936 92.8579C93.2417 93.0719 90.38 93.0362 89.0386 92.8044C86.177 92.2695 83.4406 90.843 81.7594 89.0064C81.0976 88.2932 79.8278 86.3852 79.8993 86.2604L80.5789 85.8325L83.2617 84.2812L85.2828 83.1043L85.7478 83.7284C86.338 84.6556 87.6615 85.9038 88.4305 86.3318C90.7556 87.5264 93.8676 87.366 95.4058 85.9751C96.0675 85.3689 96.3537 84.727 96.3537 83.8354C96.3537 83.0152 96.2285 82.6407 95.8171 82.0166C95.2448 81.2321 94.1001 80.5901 90.8808 79.1637C87.1786 77.5945 85.6047 76.596 84.1381 75.0625C83.2975 74.1353 82.5284 72.691 82.1707 71.4963C81.9025 70.4621 81.813 67.9301 82.0634 66.9137C82.8325 63.3475 85.5331 60.8512 89.3963 60.1379C90.6483 59.8883 93.5994 59.9953 94.8334 60.3162L94.7977 60.3519V60.3519Z" fill="white"/>
</g>
<defs>
<filter id="filter0_d" x="0" y="0" width="135" height="135" filterUnits="userSpaceOnUse" color-interpolation-filters="sRGB">
<feFlood flood-opacity="0" result="BackgroundImageFix"/>
<feColorMatrix in="SourceAlpha" type="matrix" values="0 0 0 0 0 0 0 0 0 0 0 0 0 0 0 0 0 0 127 0"/>
<feOffset dy="6"/>
<feGaussianBlur stdDeviation="6"/>
<feColorMatrix type="matrix" values="0 0 0 0 0 0 0 0 0 0 0 0 0 0 0 0 0 0 0.18 0"/>
<feBlend mode="normal" in2="BackgroundImageFix" result="effect1_dropShadow"/>
<feBlend mode="normal" in="SourceGraphic" in2="effect1_dropShadow" result="shape"/>
</filter>
</defs>
</svg>
