<svg width="66" height="9" viewBox="0 0 66 9" fill="none" xmlns="http://www.w3.org/2000/svg">
<path d="M6.06555 5.9521C5.69173 5.9521 5.33416 5.89251 4.99285 5.77332C4.65153 5.64871 4.35627 5.50243 4.10705 5.33449L4.51338 4.74125C4.75718 4.89836 5.01452 5.02297 5.2854 5.11507C5.5617 5.20175 5.86238 5.24509 6.18744 5.24509C6.46375 5.24509 6.66691 5.19904 6.79693 5.10694C6.93238 5.01484 7.0001 4.90107 7.0001 4.76563C7.0001 4.70062 6.98655 4.64373 6.95946 4.59497C6.93238 4.5408 6.8782 4.48933 6.79693 4.44057C6.71567 4.39181 6.6019 4.34576 6.45562 4.30242C6.31476 4.25908 6.12785 4.21303 5.89489 4.16427C5.35854 4.05591 4.96576 3.90422 4.71654 3.70918C4.47275 3.51415 4.35085 3.26493 4.35085 2.96154C4.35085 2.60939 4.50255 2.32226 4.80594 2.10013C5.10933 1.87801 5.54274 1.76694 6.10618 1.76694C6.43666 1.76694 6.74547 1.82112 7.0326 1.92947C7.31974 2.03783 7.56624 2.15972 7.77212 2.29517L7.34141 2.87215C7.14637 2.74754 6.93779 2.65003 6.71567 2.5796C6.49354 2.50917 6.26329 2.47395 6.02491 2.47395C5.75945 2.47395 5.56983 2.51729 5.45606 2.60397C5.34229 2.68524 5.2854 2.78818 5.2854 2.91278C5.2854 3.05364 5.36667 3.15929 5.5292 3.22972C5.69173 3.30015 5.95719 3.37599 6.3256 3.45726C6.64524 3.52769 6.908 3.60354 7.11387 3.6848C7.31974 3.76607 7.48227 3.85817 7.60146 3.9611C7.72607 4.05862 7.81275 4.16968 7.86151 4.29429C7.91027 4.4189 7.93465 4.55976 7.93465 4.71687C7.93465 4.89024 7.89401 5.05277 7.81275 5.20446C7.73148 5.35074 7.61229 5.48076 7.45518 5.59454C7.29807 5.70289 7.10303 5.78957 6.87007 5.85458C6.63711 5.9196 6.36894 5.9521 6.06555 5.9521ZM11.2715 5.9521C10.9572 5.9521 10.6647 5.90605 10.3938 5.81395C10.1283 5.72185 9.89538 5.58641 9.69493 5.40762C9.49989 5.22884 9.34549 5.00943 9.23172 4.74938C9.12336 4.48933 9.06919 4.19406 9.06919 3.86359C9.06919 3.53311 9.12878 3.23784 9.24797 2.97779C9.37258 2.71775 9.53781 2.49833 9.74369 2.31955C9.94956 2.14076 10.1906 2.00532 10.4669 1.91322C10.7432 1.8157 11.0331 1.76694 11.3365 1.76694C11.6615 1.76694 11.946 1.82112 12.1898 1.92947C12.439 2.03783 12.6476 2.17056 12.8155 2.32767L12.3686 2.91278C12.2114 2.78818 12.0516 2.69337 11.8891 2.62835C11.732 2.56334 11.564 2.53084 11.3852 2.53084C10.9843 2.53084 10.6593 2.65273 10.4101 2.89653C10.1608 3.13491 10.0362 3.45726 10.0362 3.86359C10.0362 4.06404 10.0687 4.24553 10.1338 4.40806C10.1988 4.57059 10.2882 4.71145 10.4019 4.83064C10.5211 4.94441 10.662 5.0338 10.8245 5.09882C10.987 5.15841 11.1658 5.18821 11.3609 5.18821C11.5884 5.18821 11.7943 5.14487 11.9785 5.05818C12.1681 4.9715 12.3415 4.86857 12.4986 4.74938L12.8887 5.35074C12.6557 5.55119 12.3984 5.70289 12.1166 5.80582C11.8403 5.90334 11.5586 5.9521 11.2715 5.9521Z" fill="#fff"/>
<path d="M33.525 5.85458V0.117259H34.4676V1.59629L34.4107 2.44957H34.4351C34.6085 2.26537 34.8089 2.10555 35.0365 1.97011C35.264 1.83466 35.5322 1.76694 35.841 1.76694C36.3015 1.76694 36.6401 1.9078 36.8568 2.18952C37.0735 2.46582 37.1819 2.86402 37.1819 3.38412V5.85458H36.2392V3.50602C36.2392 3.18096 36.1823 2.94529 36.0686 2.79901C35.9602 2.64732 35.7679 2.57147 35.4916 2.57147C35.2965 2.57147 35.1232 2.61752 34.9715 2.70962C34.8198 2.80172 34.6518 2.94258 34.4676 3.1322V5.85458H33.525ZM40.4131 5.9521C40.1097 5.9521 39.8253 5.90605 39.5598 5.81395C39.2943 5.71643 39.0614 5.57828 38.8609 5.3995C38.6659 5.22072 38.5115 5.0013 38.3977 4.74125C38.2839 4.4812 38.227 4.18594 38.227 3.85546C38.227 3.5304 38.2839 3.24055 38.3977 2.98592C38.5115 2.72587 38.6632 2.50646 38.8528 2.32767C39.0478 2.14347 39.2672 2.00532 39.511 1.91322C39.7602 1.8157 40.0203 1.76694 40.2912 1.76694C40.5891 1.76694 40.8519 1.8157 41.0794 1.91322C41.307 2.00532 41.4993 2.13535 41.6564 2.30329C41.8135 2.46582 41.9327 2.66357 42.014 2.89653C42.0953 3.12949 42.1359 3.38412 42.1359 3.66042C42.1359 3.75252 42.1305 3.84191 42.1196 3.9286C42.1142 4.00986 42.1061 4.07758 42.0953 4.13176H39.1616C39.2158 4.50558 39.3648 4.78188 39.6085 4.96067C39.8523 5.13945 40.1612 5.22884 40.535 5.22884C40.7463 5.22884 40.9413 5.19904 41.1201 5.13945C41.2989 5.07986 41.4776 4.99859 41.6564 4.89565L41.9734 5.48076C41.7621 5.62162 41.521 5.73539 41.2501 5.82208C40.9846 5.90876 40.7056 5.9521 40.4131 5.9521ZM40.3156 2.4902C40.0393 2.4902 39.7955 2.57147 39.5842 2.734C39.3783 2.89653 39.2456 3.14033 39.186 3.46539H41.307C41.2745 3.14033 41.1715 2.89653 40.9982 2.734C40.8302 2.57147 40.6027 2.4902 40.3156 2.4902ZM43.6605 5.85458V1.86446H44.4325L44.5138 2.76651H44.5382C44.744 2.44144 44.9905 2.19494 45.2777 2.02699C45.5702 1.85363 45.8899 1.76694 46.2366 1.76694C46.3991 1.76694 46.5373 1.78049 46.6511 1.80758C46.7703 1.82925 46.8894 1.86988 47.0086 1.92947L46.8136 2.71775C46.6836 2.6744 46.5671 2.64461 46.4642 2.62835C46.3666 2.60668 46.242 2.59585 46.0903 2.59585C45.814 2.59585 45.5486 2.6744 45.2939 2.83152C45.0393 2.98863 44.8091 3.26222 44.6032 3.6523V5.85458H43.6605ZM50.1586 5.9521C49.8552 5.9521 49.5707 5.90605 49.3053 5.81395C49.0398 5.71643 48.8068 5.57828 48.6064 5.3995C48.4113 5.22072 48.2569 5.0013 48.1432 4.74125C48.0294 4.4812 47.9725 4.18594 47.9725 3.85546C47.9725 3.5304 48.0294 3.24055 48.1432 2.98592C48.2569 2.72587 48.4086 2.50646 48.5983 2.32767C48.7933 2.14347 49.0127 2.00532 49.2565 1.91322C49.5057 1.8157 49.7658 1.76694 50.0367 1.76694C50.3346 1.76694 50.5974 1.8157 50.8249 1.91322C51.0525 2.00532 51.2448 2.13535 51.4019 2.30329C51.559 2.46582 51.6782 2.66357 51.7595 2.89653C51.8407 3.12949 51.8814 3.38412 51.8814 3.66042C51.8814 3.75252 51.876 3.84191 51.8651 3.9286C51.8597 4.00986 51.8516 4.07758 51.8407 4.13176H48.9071C48.9612 4.50558 49.1102 4.78188 49.354 4.96067C49.5978 5.13945 49.9066 5.22884 50.2804 5.22884C50.4917 5.22884 50.6868 5.19904 50.8656 5.13945C51.0443 5.07986 51.2231 4.99859 51.4019 4.89565L51.7188 5.48076C51.5076 5.62162 51.2665 5.73539 50.9956 5.82208C50.7301 5.90876 50.4511 5.9521 50.1586 5.9521ZM50.061 2.4902C49.7847 2.4902 49.5409 2.57147 49.3296 2.734C49.1238 2.89653 48.991 3.14033 48.9314 3.46539H51.0525C51.02 3.14033 50.917 2.89653 50.7437 2.734C50.5757 2.57147 50.3482 2.4902 50.061 2.4902ZM54.7875 5.9521C54.5545 5.9521 54.3622 5.87625 54.2105 5.72456C54.0588 5.56745 53.983 5.3697 53.983 5.13132C53.983 4.89295 54.0588 4.69791 54.2105 4.54621C54.3622 4.3891 54.5545 4.31054 54.7875 4.31054C55.0205 4.31054 55.2128 4.3891 55.3645 4.54621C55.5162 4.69791 55.592 4.89295 55.592 5.13132C55.592 5.3697 55.5162 5.56745 55.3645 5.72456C55.2128 5.87625 55.0205 5.9521 54.7875 5.9521ZM58.2787 5.85458V1.86446H59.0507L59.132 2.76651H59.1564C59.3623 2.44144 59.6088 2.19494 59.8959 2.02699C60.1885 1.85363 60.5081 1.76694 60.8548 1.76694C61.0174 1.76694 61.1555 1.78049 61.2693 1.80758C61.3885 1.82925 61.5077 1.86988 61.6269 1.92947L61.4318 2.71775C61.3018 2.6744 61.1853 2.64461 61.0824 2.62835C60.9849 2.60668 60.8602 2.59585 60.7086 2.59585C60.4323 2.59585 60.1668 2.6744 59.9122 2.83152C59.6575 2.98863 59.4273 3.26222 59.2214 3.6523V5.85458H58.2787Z" fill="#fff"/>
<path d="M14.4115 5.85458V1.86446H15.1835L15.2647 2.76651H15.2891C15.495 2.44144 15.7415 2.19494 16.0286 2.02699C16.3212 1.85363 16.6408 1.76694 16.9876 1.76694C17.1501 1.76694 17.2882 1.78049 17.402 1.80758C17.5212 1.82925 17.6404 1.86988 17.7596 1.92947L17.5645 2.71775C17.4345 2.6744 17.318 2.64461 17.2151 2.62835C17.1176 2.60668 16.993 2.59585 16.8413 2.59585C16.565 2.59585 16.2995 2.6744 16.0449 2.83152C15.7903 2.98863 15.56 3.26222 15.3541 3.6523V5.85458H14.4115ZM20.6413 5.85458V2.60397H18.9104V1.86446H21.5759V5.85458H20.6413ZM21.0477 1.13307C20.858 1.13307 20.6982 1.07619 20.5682 0.962417C20.4436 0.848646 20.3813 0.696951 20.3813 0.507332C20.3813 0.317713 20.4436 0.166018 20.5682 0.0522466C20.6982 -0.0669425 20.858 -0.126537 21.0477 -0.126537C21.2373 -0.126537 21.3944 -0.0669425 21.519 0.0522466C21.649 0.166018 21.714 0.317713 21.714 0.507332C21.714 0.696951 21.649 0.848646 21.519 0.962417C21.3944 1.07619 21.2373 1.13307 21.0477 1.13307ZM23.7669 7.43113V1.86446H24.5389L24.612 2.31955H24.6364C24.8098 2.16243 25.0075 2.03241 25.2296 1.92947C25.4572 1.82112 25.6847 1.76694 25.9123 1.76694C26.1723 1.76694 26.4026 1.8157 26.603 1.91322C26.8089 2.00532 26.9795 2.14076 27.115 2.31955C27.2559 2.49833 27.3615 2.71233 27.4319 2.96154C27.5078 3.21076 27.5457 3.48977 27.5457 3.79857C27.5457 4.13989 27.4969 4.44599 27.3994 4.71687C27.3019 4.98234 27.1692 5.20717 27.0012 5.39137C26.8387 5.57016 26.6491 5.70831 26.4324 5.80582C26.2211 5.90334 26.0017 5.9521 25.7741 5.9521C25.5899 5.9521 25.4003 5.91147 25.2053 5.8302C25.0156 5.74894 24.8423 5.63246 24.6852 5.48076H24.6608L24.7095 6.17964V7.43113H23.7669ZM25.5791 5.18008C25.8662 5.18008 26.1046 5.06631 26.2942 4.83877C26.4838 4.60581 26.5786 4.26179 26.5786 3.8067C26.5786 3.40579 26.5055 3.09428 26.3592 2.87215C26.2129 2.65003 25.9773 2.53896 25.6522 2.53896C25.5005 2.53896 25.3461 2.57689 25.189 2.65273C25.0319 2.72858 24.8721 2.85048 24.7095 3.01843V4.81439C24.8558 4.94983 25.0048 5.04464 25.1565 5.09882C25.3136 5.15299 25.4545 5.18008 25.5791 5.18008ZM31.1507 5.9521C30.8473 5.9521 30.59 5.91147 30.3787 5.8302C30.1728 5.74894 30.0049 5.63517 29.8748 5.48889C29.7502 5.3372 29.6581 5.1557 29.5985 4.94441C29.5444 4.73312 29.5173 4.50016 29.5173 4.24553V2.60397H28.4527V1.90509L29.5579 1.86446L29.6798 0.612977H30.4518V1.86446H32.2722V2.60397H30.4518V4.24553C30.4518 4.57601 30.5195 4.81981 30.655 4.97692C30.7958 5.12861 31.0369 5.20446 31.3782 5.20446C31.5462 5.20446 31.7006 5.19092 31.8415 5.16383C31.9823 5.13132 32.1178 5.09069 32.2478 5.04193L32.4266 5.72456C32.2478 5.78415 32.0555 5.83562 31.8496 5.87896C31.6437 5.92772 31.4107 5.9521 31.1507 5.9521Z" fill="#fff"/>
<path d="M2.78697 5.94465L8.6029e-06 4.09645V3.49506L2.78697 1.64686V2.43161L0.711418 3.78109V3.81042L2.78697 5.1599V5.94465Z" fill="#fff"/>
<path d="M63.0331 5.87863L65.7687 4.0231V3.56838L63.0331 1.71285V2.29225L65.2407 3.78107V3.81041L63.0331 5.29923V5.87863Z" fill="#fff"/>
</svg>
