<svg width="135" height="135" viewBox="0 0 135 135" fill="none" xmlns="http://www.w3.org/2000/svg">
<g filter="url(#filter0_d)">
<circle cx="67.5" cy="61.5" r="55.5" fill="white"/>
<g clip-path="url(#clip0)">
<path fill-rule="evenodd" clip-rule="evenodd" d="M98.1756 84.268C98.1127 84.2805 98.0495 84.4193 98.0495 84.4949C98.0369 84.9997 98.0244 86.3371 98.0244 87.2454C98.0244 87.2707 98.0621 87.3212 98.1 87.3212C98.2892 87.3337 98.7434 87.3463 99.1345 87.3463C99.677 87.3463 99.9924 87.2707 100.169 87.1951C100.623 86.9679 100.838 86.4758 100.838 85.9332C100.838 84.7096 99.9798 84.2427 98.7055 84.2427C98.6172 84.2301 98.3651 84.2301 98.1756 84.268V84.268ZM101.431 89.9076C101.431 88.6585 100.51 87.9646 98.8444 87.9646C98.7687 87.9646 98.2387 87.952 98.1126 87.9771C98.0747 87.9899 98.0244 88.0151 98.0244 88.053C98.0244 88.9487 98.0117 90.3745 98.0495 90.9296C98.0747 91.1692 98.2515 91.5099 98.466 91.6108C98.6929 91.737 99.2103 91.7622 99.5635 91.7622C100.56 91.7622 101.431 91.2071 101.431 89.9076V89.9076ZM95.602 83.5741C95.7281 83.5741 96.1065 83.6118 97.078 83.6118C97.9991 83.6118 98.7308 83.5867 99.6266 83.5867C100.724 83.5867 102.238 83.9777 102.238 85.6179C102.238 86.4254 101.67 87.0689 100.926 87.3843C100.888 87.3969 100.888 87.4221 100.926 87.4346C101.986 87.6997 102.92 88.3557 102.92 89.5921C102.92 90.8034 102.163 91.573 101.065 92.0525C100.396 92.3426 99.5635 92.4435 98.7182 92.4435C98.0747 92.4435 96.3463 92.3679 95.3875 92.3932C95.2866 92.3551 95.4758 91.901 95.564 91.8254C95.7912 91.8126 95.9677 91.8001 96.2075 91.7243C96.5482 91.6361 96.586 91.5351 96.6364 91.0179C96.6617 90.5763 96.6617 89.0117 96.6617 87.9015C96.6617 86.3749 96.6744 85.3404 96.6617 84.8358C96.6491 84.4447 96.5104 84.3184 96.2328 84.2427C96.0182 84.2049 95.665 84.1543 95.3748 84.1166C95.3116 84.0534 95.5261 83.6244 95.602 83.5741ZM88.3221 91.4216C88.625 91.6612 89.218 91.7621 89.7479 91.7621C90.4292 91.7621 91.1104 91.6361 91.7665 91.0429C92.4352 90.4375 92.902 89.5039 92.902 88.0151C92.902 86.5893 92.3595 85.4286 91.2492 84.7474C90.6184 84.3561 89.8109 84.1924 88.8773 84.1924C88.5998 84.1924 88.3348 84.2049 88.1709 84.2805C88.1329 84.3058 88.0447 84.4193 88.0447 84.4823C88.0194 84.7347 88.0194 86.6776 88.0194 87.8132C88.0194 88.9865 88.0194 90.6267 88.0447 90.816C88.0447 91.0053 88.1329 91.2954 88.3222 91.4216H88.3221ZM85.4581 83.574C85.6979 83.574 86.6189 83.6118 87.0604 83.6118C87.8555 83.6118 88.4231 83.5741 89.9244 83.5741C91.186 83.5741 92.2459 83.9147 93.0029 84.5581C93.9238 85.353 94.4034 86.4507 94.4034 87.7879C94.4034 89.6931 93.5328 90.7908 92.6622 91.4216C91.7918 92.065 90.6563 92.4435 89.0413 92.4435C88.1834 92.4435 86.7073 92.4183 85.4834 92.4056H85.4708C85.4078 92.2921 85.5717 91.8505 85.6726 91.8379C86.0008 91.8001 86.0891 91.7874 86.2531 91.7245C86.518 91.6234 86.5685 91.4847 86.6064 91.0179C86.6441 90.1473 86.6316 89.1001 86.6316 87.9141C86.6316 87.0689 86.6441 85.416 86.6189 84.8861C86.5811 84.4446 86.3919 84.331 86.0133 84.2552C85.8241 84.2175 85.5717 84.1669 85.2186 84.1292C85.168 84.0407 85.3951 83.6497 85.4581 83.5741V83.574Z" fill="#8E714E"/>
<path fill-rule="evenodd" clip-rule="evenodd" d="M70.1921 91.9135C69.8767 91.8756 69.6496 91.8253 69.372 91.6991C69.3342 91.6738 69.271 91.5477 69.271 91.4972C69.2458 91.0556 69.2459 89.7939 69.2459 88.9487C69.2459 88.2673 69.1324 87.6744 68.8421 87.258C68.5014 86.7784 68.0095 86.501 67.3785 86.501C66.8235 86.501 66.079 86.8795 65.4608 87.4094C65.4482 87.422 65.3473 87.5104 65.3599 87.3715C65.3599 87.2328 65.3852 86.9552 65.3978 86.7659C65.4105 86.5892 65.3094 86.501 65.3094 86.501C64.9057 86.7028 63.7703 86.9678 63.3538 87.0055C63.0511 87.0688 62.9754 87.3589 63.2909 87.4598H63.3035C63.6439 87.5607 63.8712 87.6744 64.0477 87.788C64.1739 87.8889 64.1613 88.0276 64.1613 88.1413C64.1739 89.0873 64.1739 90.5383 64.1361 91.3332C64.1235 91.6486 64.0352 91.7621 63.808 91.8126L63.8333 91.8C63.6566 91.8379 63.5179 91.8756 63.3034 91.9009C63.2276 91.9766 63.2276 92.3804 63.3034 92.4687C63.4421 92.4687 64.1739 92.4308 64.7797 92.4308C65.6123 92.4308 66.0413 92.4687 66.2557 92.4687C66.344 92.3678 66.3693 91.9892 66.3188 91.9009C66.079 91.8883 65.9024 91.8631 65.7385 91.8126C65.5114 91.762 65.4482 91.6486 65.4355 91.3837C65.4105 90.7148 65.4105 89.3019 65.4105 88.343C65.4105 88.0781 65.4861 87.9519 65.5617 87.8762C65.8519 87.6239 66.3188 87.4473 66.7351 87.4473C67.1389 87.4473 67.4037 87.5735 67.6056 87.7375C67.8832 87.9645 67.9715 88.2926 68.0094 88.5323C68.0724 89.0748 68.0472 90.1472 68.0472 91.0808C68.0472 91.5855 68.0094 91.7117 67.8203 91.7747C67.7318 91.8126 67.5047 91.8631 67.2398 91.8882C67.1515 91.9766 67.1767 92.3678 67.2398 92.4561C67.6056 92.4561 68.0347 92.4182 68.6655 92.4182C69.4476 92.4182 69.9524 92.4561 70.1543 92.4561C70.2172 92.3804 70.2425 92.0145 70.1921 91.9135V91.9135ZM73.6869 87.0941C73.0183 87.0941 72.6019 87.6113 72.6019 88.4187C72.6019 89.2388 72.9677 90.1851 74.0023 90.1851C74.1789 90.1851 74.5071 90.1093 74.6583 89.9327C74.8981 89.7057 75.0621 89.2514 75.0621 88.7719C75.0621 87.7248 74.5448 87.094 73.6869 87.094V87.0941ZM73.5986 92.6705C73.3463 92.6705 73.1695 92.7462 73.0561 92.8094C72.5261 93.1498 72.2865 93.4779 72.2865 93.8692C72.2865 94.2349 72.4252 94.5251 72.7281 94.7774C73.0939 95.0929 73.5986 95.2443 74.242 95.2443C75.5289 95.2443 76.0967 94.5504 76.0967 93.8692C76.0967 93.3896 75.8569 93.0742 75.365 92.8977C75.0117 92.7462 74.3683 92.6705 73.5986 92.6705V92.6705ZM73.6869 95.9509C72.9173 95.9509 72.3621 95.7868 71.8827 95.421C71.4158 95.0677 71.2141 94.5378 71.2141 94.1719C71.2141 94.071 71.2393 93.7933 71.4664 93.5411C71.6051 93.3896 71.908 93.0995 72.6272 92.6074C72.6523 92.5949 72.6649 92.5823 72.6649 92.5569C72.6649 92.5317 72.6396 92.5064 72.6145 92.494C72.0215 92.2669 71.8449 91.9009 71.7943 91.6991V91.6738C71.7818 91.5981 71.7566 91.5224 71.8702 91.4467C71.9585 91.3837 72.0847 91.3079 72.2233 91.2197C72.4378 91.0934 72.6649 90.9547 72.8037 90.841C72.829 90.8159 72.829 90.7907 72.829 90.7654C72.829 90.7401 72.8037 90.7148 72.7784 90.7024C71.8955 90.4122 71.4539 89.756 71.4539 88.7719C71.4539 88.1285 71.744 87.5482 72.2612 87.1823C72.6145 86.9048 73.4977 86.5641 74.078 86.5641H74.1159C74.7089 86.5766 75.0368 86.7028 75.5036 86.8669C75.756 86.9552 75.9958 86.993 76.3239 86.993C76.8158 86.993 77.0303 86.8416 77.2068 86.6651C77.2196 86.6903 77.2449 86.7534 77.2574 86.9173C77.27 87.0814 77.2196 87.3211 77.0934 87.4977C76.9925 87.6365 76.7654 87.7375 76.5383 87.7375H76.4751C76.248 87.7122 76.147 87.6869 76.147 87.6869L76.0967 87.7122C76.0841 87.7375 76.0967 87.7627 76.1093 87.8006L76.122 87.8258C76.1471 87.9393 76.1976 88.2799 76.1976 88.3683C76.1976 89.4029 75.7813 89.8569 75.3397 90.1976C74.9107 90.5131 74.4187 90.7148 73.8635 90.7654C73.8509 90.7654 73.8006 90.7654 73.6869 90.778C73.6239 90.778 73.5355 90.7907 73.5228 90.7907H73.5102C73.4093 90.8159 73.1571 90.9421 73.1571 91.1564C73.1571 91.3457 73.2706 91.5729 73.8131 91.6108C73.9266 91.6233 74.04 91.6233 74.1664 91.6361C74.8855 91.6864 75.7813 91.7495 76.1976 91.8883C76.778 92.1027 77.1438 92.62 77.1438 93.2383C77.1438 94.1721 76.4753 95.0425 75.365 95.5849C74.8225 95.8247 74.2798 95.9509 73.6869 95.9509V95.9509ZM80.8783 87.1572C80.6135 87.1572 80.3737 87.22 80.197 87.3462C79.7051 87.6491 79.4527 88.2547 79.4527 89.1378C79.4527 90.7907 80.2853 91.9515 81.4714 91.9515C81.8247 91.9515 82.1022 91.8504 82.3419 91.6486C82.7077 91.3457 82.8971 90.7401 82.8971 89.8948C82.8971 88.2547 82.0769 87.157 80.8784 87.157L80.8783 87.1572ZM81.1055 92.557C78.9607 92.557 78.1911 90.9799 78.1911 89.5038C78.1911 88.4692 78.6074 87.6744 79.44 87.1066C80.0331 86.7407 80.7397 86.5389 81.3705 86.5389C83.0106 86.5389 84.1587 87.7122 84.1587 89.4029C84.1587 90.5509 83.7045 91.4593 82.8339 92.0145C82.4176 92.292 81.6985 92.557 81.1054 92.557H81.1055V92.557ZM58.6227 87.157C58.3577 87.157 58.118 87.22 57.9413 87.3462C57.4493 87.6491 57.197 88.2547 57.197 89.1378C57.197 90.7907 58.0296 91.9515 59.2156 91.9515C59.5689 91.9515 59.8464 91.8504 60.0862 91.6486C60.452 91.3457 60.6413 90.7401 60.6413 89.8948C60.6413 88.2547 59.8339 87.157 58.6227 87.157ZM58.8498 92.557C56.7049 92.557 55.9353 90.9799 55.9353 89.5038C55.9353 88.4692 56.3516 87.6744 57.1842 87.1066C57.7773 86.7407 58.4839 86.5389 59.1147 86.5389C60.7549 86.5389 61.903 87.7122 61.903 89.4029C61.903 90.5509 61.4488 91.4593 60.5782 92.0145C60.1744 92.292 59.4553 92.557 58.8498 92.557ZM44.4289 92.4308C44.4036 92.3931 44.3783 92.2795 44.3911 92.1407C44.3911 92.0397 44.4164 91.9766 44.4289 91.9515C44.6939 91.9135 44.8327 91.8756 44.984 91.8379C45.2364 91.7747 45.3373 91.6361 45.3499 91.3206C45.3879 90.5636 45.3879 89.1252 45.3752 88.1285V88.1032C45.3752 87.9898 45.3752 87.8509 45.2364 87.75C45.0345 87.6239 44.7948 87.5104 44.4794 87.4218C44.3659 87.3842 44.2902 87.3211 44.3027 87.2455C44.3027 87.1697 44.3785 87.0814 44.5425 87.0561C44.9589 87.0182 46.0437 86.7534 46.4727 86.5641C46.498 86.5892 46.5359 86.6651 46.5359 86.766L46.5233 86.9046C46.5106 87.0435 46.498 87.2076 46.498 87.3715C46.498 87.422 46.5486 87.4598 46.5989 87.4598C46.6242 87.4598 46.6495 87.4473 46.6747 87.4346C47.4821 86.8037 48.2139 86.5766 48.5923 86.5766C49.2107 86.5766 49.6901 86.8669 50.056 87.4724C50.0812 87.5104 50.1065 87.523 50.1443 87.523C50.1695 87.523 50.2072 87.5104 50.2199 87.4851C50.9644 86.9173 51.7088 86.5766 52.2007 86.5766C53.374 86.5766 54.068 87.4473 54.068 88.9234C54.068 89.3397 54.068 89.8822 54.0554 90.3744C54.0554 90.8159 54.0429 91.2196 54.0429 91.5099C54.0429 91.5728 54.131 91.7747 54.2698 91.8126C54.4465 91.9009 54.6863 91.9388 55.0017 91.9892H55.0142C55.0395 92.0775 54.9891 92.4055 54.9386 92.4687C54.8629 92.4687 54.7493 92.4687 54.6232 92.4561C54.3039 92.4394 53.9841 92.431 53.6643 92.4308C52.8821 92.4308 52.4784 92.4434 52.0871 92.4687C52.0621 92.3678 52.0494 92.0649 52.0871 91.9892C52.3143 91.9515 52.4278 91.9135 52.5667 91.8757C52.8191 91.8 52.8821 91.6864 52.8948 91.3584C52.8948 91.1187 52.9451 89.0748 52.8694 88.5827C52.7938 88.0781 52.4152 87.4851 51.5825 87.4851C51.2671 87.4851 50.7751 87.6113 50.2957 87.9771C50.2705 88.0023 50.2451 88.0654 50.2451 88.1032V88.116C50.2957 88.3808 50.2957 88.6838 50.2957 89.1505V89.9706C50.2957 90.5383 50.283 91.0683 50.2957 91.4719C50.2957 91.7495 50.4597 91.8126 50.5985 91.8631C50.6742 91.8756 50.7246 91.8883 50.7877 91.9009C50.9012 91.9262 51.0148 91.9515 51.1915 91.9892C51.2167 92.0398 51.2167 92.2037 51.1789 92.3425C51.1662 92.4182 51.1409 92.456 51.1283 92.4687C50.6994 92.4561 50.2578 92.4434 49.6144 92.4434C49.4252 92.4434 49.0971 92.4561 48.8195 92.4561C48.5923 92.4561 48.3779 92.4687 48.2519 92.4687C48.2391 92.4434 48.2139 92.3552 48.2139 92.2163C48.2139 92.1028 48.2391 92.0145 48.2644 91.9892C48.3275 91.9766 48.3779 91.964 48.4411 91.964C48.5923 91.9388 48.7186 91.9135 48.8447 91.8883C49.0593 91.8253 49.1349 91.7117 49.1475 91.4341C49.1854 90.8033 49.2232 88.9992 49.1349 88.5448C48.9836 87.8131 48.5673 87.4473 47.8984 87.4473C47.5074 87.4473 47.0152 87.6365 46.6116 87.9395C46.5485 87.9898 46.498 88.1158 46.498 88.2294V88.9739C46.498 89.8822 46.498 91.0178 46.5106 91.5099C46.5233 91.6611 46.5736 91.8379 46.8639 91.9009C46.9271 91.9135 47.028 91.9388 47.1541 91.9515L47.3811 91.9892C47.4065 92.0649 47.3938 92.3678 47.3434 92.4687C47.2172 92.4687 47.0658 92.4561 46.889 92.4561C46.6242 92.4434 46.2835 92.4308 45.9051 92.4308C45.4635 92.4308 45.1481 92.4434 44.8957 92.4561C44.719 92.4308 44.5803 92.4308 44.4289 92.4308V92.4308Z" fill="#442D22"/>
<path fill-rule="evenodd" clip-rule="evenodd" d="M37.7924 95.4589L37.2752 95.2821C37.2752 95.2821 37.3384 92.6454 36.392 92.4561C35.7614 91.7243 36.4932 61.4192 38.7641 92.3551C38.7641 92.3551 37.9818 92.7461 37.843 93.4149C37.6915 94.0711 37.7924 95.4589 37.7924 95.4589V95.4589Z" fill="white"/>
<path fill-rule="evenodd" clip-rule="evenodd" d="M37.7924 95.4589L37.2752 95.2821C37.2752 95.2821 37.3384 92.6454 36.392 92.4561C35.7614 91.7243 36.4932 61.4192 38.7641 92.3551C38.7641 92.3551 37.9818 92.7461 37.843 93.4149C37.6915 94.0711 37.7924 95.4589 37.7924 95.4589V95.4589Z" fill="#A6A385"/>
<path fill-rule="evenodd" clip-rule="evenodd" d="M38.0701 92.9104C38.0701 92.9104 42.5995 89.9328 41.5395 83.7379C40.5177 79.234 38.1079 77.7578 37.843 77.19C37.5529 76.7863 37.2752 76.0799 37.2752 76.0799L37.4645 88.608C37.4645 88.6207 37.0734 92.4435 38.0702 92.9105" fill="white"/>
<path fill-rule="evenodd" clip-rule="evenodd" d="M38.0701 92.9104C38.0701 92.9104 42.5995 89.9328 41.5395 83.7379C40.5177 79.234 38.1079 77.7578 37.843 77.19C37.5529 76.7863 37.2752 76.0799 37.2752 76.0799L37.4645 88.608C37.4645 88.6207 37.0734 92.4435 38.0702 92.9105" fill="#499D4A"/>
<path fill-rule="evenodd" clip-rule="evenodd" d="M37.0104 93.0743C37.0104 93.0743 32.7585 90.1724 33.0109 85.0628C33.2505 79.9531 36.2533 77.4424 36.8336 76.9882C37.2122 76.5845 37.2248 76.433 37.2501 76.0293C37.515 76.5971 37.4646 84.5203 37.5023 85.4539C37.6158 89.0496 37.3005 92.3932 37.0104 93.0743Z" fill="white"/>
<path fill-rule="evenodd" clip-rule="evenodd" d="M37.0104 93.0743C37.0104 93.0743 32.7585 90.1724 33.0109 85.0628C33.2505 79.9531 36.2533 77.4424 36.8336 76.9882C37.2122 76.5845 37.2248 76.433 37.2501 76.0293C37.515 76.5971 37.4646 84.5203 37.5023 85.4539C37.6158 89.0496 37.3005 92.3932 37.0104 93.0743Z" fill="#58AA50"/>
</g>
<g clip-path="url(#clip1)">
<path d="M82.2166 39.5524C80.3138 39.505 78.839 39.6953 77.6021 40.2185C77.2452 40.3611 76.6743 40.3613 76.6267 40.8133C76.817 41.0036 76.8408 41.3128 77.0073 41.5744C77.2931 42.05 77.7922 42.6923 78.2442 43.0255C78.7437 43.406 79.2434 43.7865 79.7665 44.1195C80.6942 44.6905 81.741 45.0234 82.6448 45.5943C83.1683 45.9271 83.6913 46.3556 84.2146 46.7123C84.4763 46.9023 84.6427 47.2118 84.9759 47.3306V47.2594C84.8092 47.0452 84.7616 46.736 84.5953 46.4982C84.3576 46.2603 84.1195 46.0462 83.8816 45.8083C83.1918 44.8808 82.3356 44.0719 81.4079 43.406C80.6468 42.8826 78.9816 42.1691 78.6724 41.2889C78.6724 41.2889 78.6485 41.2652 78.6249 41.2415C79.1481 41.1939 79.7665 41.0036 80.2662 40.8608C81.0749 40.6466 81.8122 40.6943 82.6448 40.4802C83.0253 40.385 83.4059 40.2661 83.7864 40.1472V39.9332C83.3585 39.505 83.0492 38.9342 82.5972 38.5298C81.3841 37.4829 80.0519 36.4603 78.6724 35.604C77.935 35.1282 76.9834 34.819 76.1985 34.4147C75.9133 34.2718 75.4374 34.2006 75.271 33.9627C74.8427 33.4395 74.6048 32.7497 74.2957 32.1312C73.606 30.8228 72.9398 29.3719 72.3451 27.9925C71.9172 27.0647 71.6555 26.1369 71.1321 25.2808C68.6821 21.237 66.018 18.787 61.9268 16.3845C61.0466 15.8851 60 15.6709 58.8821 15.4094C58.2876 15.3855 57.6928 15.338 57.0982 15.3141C56.7175 15.1476 56.3369 14.6957 56.0039 14.4816C54.6483 13.6252 51.1514 11.7701 50.1524 14.2201C49.5101 15.7661 51.104 17.2883 51.6509 18.0735C52.0556 18.6205 52.5786 19.2389 52.8641 19.8574C53.0306 20.2616 53.0781 20.69 53.2446 21.1181C53.6254 22.1644 53.9819 23.3302 54.4816 24.3056C54.7433 24.805 55.0287 25.3282 55.3617 25.7802C55.552 26.0417 55.8849 26.1608 55.9564 26.5889C55.6235 27.0647 55.5996 27.7784 55.4091 28.3729C54.5529 31.0608 54.8861 34.3909 56.099 36.3651C56.4795 36.9596 57.3835 38.2682 58.5966 37.7685C59.6671 37.3405 59.4292 35.9846 59.7382 34.7953C59.8099 34.5096 59.7623 34.3195 59.9049 34.1292V34.1769C60.2379 34.8427 60.5708 35.4852 60.8801 36.1511C61.6176 37.3165 62.9019 38.5298 63.9723 39.3386C64.5433 39.7665 64.9952 40.504 65.7089 40.7657V40.6942H65.6612C65.5184 40.4801 65.3043 40.385 65.1141 40.2184C64.6861 39.7905 64.2102 39.2671 63.8773 38.7913C62.8784 37.4591 61.998 35.9845 61.2131 34.4621C60.8327 33.7249 60.4995 32.9161 60.1903 32.1788C60.0475 31.893 60.0475 31.4651 59.8097 31.3225C59.4529 31.8457 58.9297 32.2977 58.668 32.9399C58.2163 33.9627 58.1685 35.2234 58.002 36.5315C57.9069 36.5556 57.9543 36.5315 57.9067 36.5793C57.1458 36.3888 56.8841 35.604 56.5985 34.9379C55.8848 33.2492 55.7658 30.5375 56.3845 28.587C56.551 28.0875 57.2647 26.5177 56.9792 26.0419C56.8365 25.5899 56.3606 25.3282 56.099 24.9715C55.7899 24.5195 55.4567 23.9489 55.2428 23.4492C54.6718 22.1171 54.3863 20.6423 53.768 19.3103C53.4825 18.6917 52.9832 18.0497 52.5786 17.4788C52.1268 16.8366 51.6272 16.3845 51.2704 15.6234C51.1516 15.3618 50.9849 14.9336 51.1752 14.6482C51.2228 14.4578 51.3178 14.3866 51.5083 14.339C51.8175 14.0772 52.6977 14.4103 53.0067 14.553C53.8869 14.9096 54.6242 15.2429 55.3617 15.7423C55.6946 15.9802 56.0515 16.4322 56.4795 16.5511H56.9791C57.7403 16.7175 58.5965 16.5987 59.3102 16.8127C60.571 17.217 61.7126 17.8117 62.7355 18.454C65.8516 20.4282 68.4203 23.2351 70.1569 26.5889C70.4424 27.1358 70.5612 27.6356 70.8229 28.2063C71.3226 29.3719 71.9409 30.5613 72.4402 31.703C72.9398 32.8208 73.4155 33.9627 74.1291 34.8905C74.486 35.3898 75.913 35.6516 76.5554 35.9133C77.0311 36.1272 77.7686 36.3177 78.1967 36.5792C79.0054 37.0785 79.8141 37.6497 80.5753 38.1966C80.9559 38.4821 82.1451 39.0768 82.2166 39.5524V39.5524Z" fill="#00546B"/>
<path d="M57.9551 18.8819C57.5508 18.8819 57.2655 18.9298 56.98 19.001V19.0486H57.0276C57.2181 19.4292 57.5508 19.6909 57.7886 20.0238C57.979 20.4043 58.1454 20.7851 58.3359 21.1657C58.3595 21.1418 58.3833 21.1181 58.3833 21.1181C58.7165 20.8801 58.8829 20.4996 58.8829 19.9286C58.7402 19.7623 58.7164 19.5957 58.5974 19.4292C58.4548 19.1912 58.1454 19.0724 57.9551 18.8819V18.8819Z" fill="#00546B"/>
</g>
</g>
<defs>
<filter id="filter0_d" x="0" y="0" width="135" height="135" filterUnits="userSpaceOnUse" color-interpolation-filters="sRGB">
<feFlood flood-opacity="0" result="BackgroundImageFix"/>
<feColorMatrix in="SourceAlpha" type="matrix" values="0 0 0 0 0 0 0 0 0 0 0 0 0 0 0 0 0 0 127 0"/>
<feOffset dy="6"/>
<feGaussianBlur stdDeviation="6"/>
<feColorMatrix type="matrix" values="0 0 0 0 0 0 0 0 0 0 0 0 0 0 0 0 0 0 0.18 0"/>
<feBlend mode="normal" in2="BackgroundImageFix" result="effect1_dropShadow"/>
<feBlend mode="normal" in="SourceGraphic" in2="effect1_dropShadow" result="shape"/>
</filter>
<clipPath id="clip0">
<rect width="70" height="19.964" fill="white" transform="translate(33 76)"/>
</clipPath>
<clipPath id="clip1">
<rect width="35" height="34.454" fill="white" transform="translate(50 13)"/>
</clipPath>
</defs>
</svg>
