<svg width="135" height="135" viewBox="0 0 135 135" fill="none" xmlns="http://www.w3.org/2000/svg">
<g filter="url(#filter0_d)">
<circle cx="67.5" cy="61.5" r="55.5" fill="#0091E2"/>
<path d="M46.4521 76.7176C44.4035 76.7176 42.5411 75.0414 42.5411 72.9928C42.5411 70.9442 44.2173 69.268 46.4521 69.268C48.687 69.268 50.3632 70.9442 50.3632 72.9928C50.3632 75.0414 48.5008 76.7176 46.4521 76.7176ZM94.5018 56.4175C94.1293 53.4377 92.2669 51.0166 89.8458 49.1542L88.9146 48.4092L88.1697 49.3404C86.6798 51.0166 86.1211 53.9964 86.3073 56.2313C86.4935 57.9074 87.0522 59.5836 87.9834 60.8873C87.2385 61.2597 86.3073 61.6322 85.5623 62.0047C83.8862 62.5634 82.21 62.7497 80.5339 62.7497H32.298L32.1117 63.8671C31.7393 67.4056 32.298 71.1304 33.7879 74.4827L34.5329 75.7864V75.9726C39.0026 83.4222 47.0109 86.7745 55.7641 86.7745C72.5256 86.7745 86.3073 79.5112 92.8257 63.8671C97.1092 64.0533 101.393 62.9359 103.441 58.8386L104 57.9074L103.069 57.3487C100.648 55.8588 97.2954 55.6726 94.5018 56.4175V56.4175ZM70.477 53.4377H63.2137V60.701H70.477V53.4377ZM70.477 44.312H63.2137V51.5753H70.477V44.312ZM70.477 35H63.2137V42.2633H70.477V35V35ZM79.4164 53.4377H72.1531V60.701H79.4164V53.4377ZM52.4118 53.4377H45.1485V60.701H52.4118V53.4377V53.4377ZM61.5375 53.4377H54.2742V60.701H61.5375V53.4377ZM43.4723 53.4377H36.209V60.701H43.4723V53.4377V53.4377ZM61.5375 44.312H54.2742V51.5753H61.5375V44.312ZM52.4118 44.312H45.1485V51.5753H52.4118V44.312V44.312Z" fill="white"/>
</g>
<defs>
<filter id="filter0_d" x="0" y="0" width="135" height="135" filterUnits="userSpaceOnUse" color-interpolation-filters="sRGB">
<feFlood flood-opacity="0" result="BackgroundImageFix"/>
<feColorMatrix in="SourceAlpha" type="matrix" values="0 0 0 0 0 0 0 0 0 0 0 0 0 0 0 0 0 0 127 0"/>
<feOffset dy="6"/>
<feGaussianBlur stdDeviation="6"/>
<feColorMatrix type="matrix" values="0 0 0 0 0 0 0 0 0 0 0 0 0 0 0 0 0 0 0.18 0"/>
<feBlend mode="normal" in2="BackgroundImageFix" result="effect1_dropShadow"/>
<feBlend mode="normal" in="SourceGraphic" in2="effect1_dropShadow" result="shape"/>
</filter>
</defs>
</svg>
