<svg width="135" height="135" viewBox="0 0 135 135" fill="none" xmlns="http://www.w3.org/2000/svg">
<g filter="url(#filter0_d)">
<circle cx="67.5" cy="61.5" r="55.5" fill="white"/>
<path fill-rule="evenodd" clip-rule="evenodd" d="M32 25H104V97H32V25Z" fill="white"/>
<path fill-rule="evenodd" clip-rule="evenodd" d="M62.0213 62.9987C62.0213 62.9987 60.3016 63.9994 63.2465 64.3374C66.8152 64.7449 68.638 64.6863 72.5694 63.9426C72.5694 63.9426 73.6044 64.5907 75.0493 65.1513C66.2336 68.9288 55.0979 64.9328 62.0213 62.9987ZM60.9437 58.0693C60.9437 58.0693 59.0144 59.4973 61.9619 59.8021C65.7741 60.1958 68.7833 60.2279 73.9937 59.2254C73.9937 59.2254 74.7131 59.9556 75.8452 60.3545C65.1881 63.4716 53.3188 60.5999 60.9437 58.0693Z" fill="#3174B9"/>
<path fill-rule="evenodd" clip-rule="evenodd" d="M70.0241 49.7063C72.1973 52.2078 69.4544 54.4576 69.4544 54.4576C69.4544 54.4576 74.97 51.6109 72.4367 48.0448C70.0715 44.7208 68.2573 43.0694 78.0778 37.3746C78.0774 37.3743 62.6622 41.2231 70.0241 49.7063Z" fill="#CA3132"/>
<path fill-rule="evenodd" clip-rule="evenodd" d="M81.6831 66.6452C81.6831 66.6452 82.9561 67.6948 80.2809 68.5065C75.1938 70.0473 59.104 70.512 54.6348 68.5677C53.0293 67.8685 56.0415 66.8992 56.9891 66.6945C57.9775 66.4808 58.5415 66.5197 58.5415 66.5197C56.7549 65.2616 46.9935 68.9906 53.584 70.0604C71.5553 72.9743 86.344 68.7485 81.6831 66.6452ZM62.8487 52.9613C62.8487 52.9613 54.6654 54.9055 59.9512 55.6122C62.1838 55.9107 66.631 55.8419 70.7768 55.4942C74.164 55.2099 77.5638 54.6018 77.5638 54.6018C77.5638 54.6018 76.3704 55.1139 75.5057 55.7034C67.1943 57.8896 51.1408 56.8714 55.7628 54.6366C59.6707 52.7461 62.8487 52.9613 62.8487 52.9613V52.9613ZM77.5299 61.1666C85.978 56.7776 82.072 52.559 79.3448 53.1275C78.6781 53.2668 78.3789 53.3871 78.3789 53.3871C78.3789 53.3871 78.6277 52.9979 79.1005 52.8305C84.4947 50.9349 88.6423 58.423 77.3614 61.3885C77.361 61.3885 77.491 61.2712 77.5299 61.1666V61.1666Z" fill="#3174B9"/>
<path fill-rule="evenodd" clip-rule="evenodd" d="M72.4368 28.1765C72.4368 28.1765 77.1145 32.8572 67.9989 40.0525C60.6885 45.8265 66.3322 49.1177 67.9966 52.8795C63.7287 49.0295 60.5981 45.6397 62.6981 42.4857C65.7812 37.8557 74.3242 35.6105 72.4368 28.1765V28.1765Z" fill="#CA3132"/>
<path fill-rule="evenodd" clip-rule="evenodd" d="M63.6797 73.0635C71.7876 73.582 84.2407 72.7755 84.5361 68.9382C84.5361 68.9382 83.9691 70.3927 77.8346 71.5466C70.9135 72.8495 62.3757 72.6978 57.3137 71.8622C57.3137 71.8622 58.351 72.7206 63.6797 73.0635V73.0635Z" fill="#3174B9"/>
<path fill-rule="evenodd" clip-rule="evenodd" d="M84.1615 79.9447H83.9149V79.8065H84.5802V79.9447H84.3337V80.6349H84.1615V79.9447ZM85.489 79.979H85.486L85.241 80.6346H85.1285L84.885 79.979H84.882V80.6346H84.7184V79.8061H84.9586L85.1842 80.3921L85.4098 79.8061H85.6477V80.6346H85.4894V79.979H85.489V79.979ZM62.3511 87.7234C61.5865 88.386 60.7781 88.7588 60.0524 88.7588C59.0184 88.7588 58.4574 88.1376 58.4574 87.1437C58.4574 86.0675 59.058 85.2801 61.4621 85.2801H62.3507V87.7234H62.3511V87.7234ZM64.4615 90.1043V82.7338C64.4615 80.8501 63.3873 79.607 60.7976 79.607C59.2866 79.607 57.9621 79.9801 56.8852 80.4556L57.1953 81.7611C58.0435 81.4496 59.1402 81.1609 60.2167 81.1609C61.7086 81.1609 62.3507 81.7611 62.3507 83.0039V83.9358H61.6051C57.9812 83.9358 56.3458 85.3418 56.3458 87.4556C56.3458 89.2769 57.4235 90.3123 59.4521 90.3123C60.7561 90.3123 61.7303 89.7741 62.6398 88.9863L62.8053 90.1043H64.4615V90.1043ZM71.5052 90.1043H68.8737L65.705 79.7945H68.0037L69.9703 86.1299L70.4081 88.0334C71.4002 85.2802 72.1043 82.485 72.4566 79.7945H74.6918C74.0934 83.1891 73.0154 86.9162 71.5052 90.1043V90.1043ZM81.6043 87.7234C80.8374 88.386 80.0291 88.7588 79.3048 88.7588C78.2709 88.7588 77.7106 88.1376 77.7106 87.1437C77.7106 86.0675 78.3116 85.2801 80.7142 85.2801H81.6043V87.7234V87.7234ZM83.7155 90.1043V82.7338C83.7155 80.8501 82.6379 79.607 80.0508 79.607C78.5384 79.607 77.2142 79.9801 76.1373 80.4556L76.4473 81.7611C77.2956 81.4496 78.3946 81.1609 79.4714 81.1609C80.9611 81.1609 81.6039 81.7611 81.6039 83.0039V83.9358H80.8584C77.234 83.9358 75.5998 85.3418 75.5998 87.4556C75.5998 89.2769 76.6752 90.3123 78.7042 90.3123C80.0093 90.3123 80.982 89.7741 81.8938 88.9863L82.06 90.1043H83.7155V90.1043ZM54.0318 91.8561C53.4304 92.735 52.4578 93.4309 51.3943 93.8235L50.3522 92.5961C51.1624 92.1804 51.8564 91.5091 52.1795 90.8846C52.4578 90.328 52.5739 89.6123 52.5739 87.8993V76.1276H54.817V87.7368C54.817 90.0281 54.634 90.9541 54.0318 91.8561V91.8561Z" fill="#CA3132"/>
</g>
<defs>
<filter id="filter0_d" x="0" y="0" width="135" height="135" filterUnits="userSpaceOnUse" color-interpolation-filters="sRGB">
<feFlood flood-opacity="0" result="BackgroundImageFix"/>
<feColorMatrix in="SourceAlpha" type="matrix" values="0 0 0 0 0 0 0 0 0 0 0 0 0 0 0 0 0 0 127 0"/>
<feOffset dy="6"/>
<feGaussianBlur stdDeviation="6"/>
<feColorMatrix type="matrix" values="0 0 0 0 0 0 0 0 0 0 0 0 0 0 0 0 0 0 0.18 0"/>
<feBlend mode="normal" in2="BackgroundImageFix" result="effect1_dropShadow"/>
<feBlend mode="normal" in="SourceGraphic" in2="effect1_dropShadow" result="shape"/>
</filter>
</defs>
</svg>
