<svg width="135" height="135" viewBox="0 0 135 135" fill="none" xmlns="http://www.w3.org/2000/svg">
<g filter="url(#filter0_d)">
<circle cx="67.5" cy="61.5" r="55.5" fill="white"/>
<g clip-path="url(#clip0)">
<path d="M95.7517 79.0703C92.1635 78.9808 89.3825 79.3397 87.05 80.3264C86.3771 80.5953 85.3005 80.5955 85.2108 81.4478C85.5697 81.8067 85.6145 82.3899 85.9286 82.8831C86.4674 83.78 87.4087 84.9912 88.261 85.6195C89.2028 86.337 90.1451 87.0545 91.1315 87.6825C92.881 88.7591 94.8548 89.3869 96.5592 90.4635C97.5464 91.0911 98.5325 91.899 99.5194 92.5717C100.013 92.93 100.327 93.5137 100.955 93.7378V93.6034C100.641 93.1994 100.551 92.6165 100.237 92.1679C99.7891 91.7193 99.34 91.3156 98.8914 90.867C97.5907 89.118 95.976 87.5928 94.2268 86.337C92.7915 85.3501 89.6514 84.0046 89.0685 82.3448C89.0685 82.3448 89.0233 82.3002 88.9787 82.2553C89.9654 82.1656 91.1315 81.8067 92.0738 81.5376C93.5988 81.1336 94.9891 81.2235 96.5592 80.8198C97.2767 80.6404 97.9945 80.4161 98.712 80.1918V79.7883C97.905 78.9808 97.3218 77.9045 96.4695 77.1419C94.1819 75.1678 91.6698 73.2393 89.0685 71.6247C87.6778 70.7275 85.8834 70.1443 84.4033 69.382C83.8655 69.1125 82.9681 68.9782 82.6543 68.5296C81.8466 67.543 81.398 66.2423 80.8151 65.076C79.5147 62.6087 78.2584 59.8728 77.1369 57.2715C76.3299 55.522 75.8365 53.7724 74.8495 52.158C70.2295 44.5327 65.2058 39.9127 57.491 35.3822C55.8312 34.4404 53.8576 34.0366 51.7495 33.5434C50.6285 33.4983 49.5068 33.4089 48.3855 33.3637C47.6678 33.0497 46.95 32.1977 46.322 31.7939C43.7658 30.179 37.1717 26.6807 35.2879 31.3007C34.0767 34.2161 37.0822 37.0866 38.1135 38.5672C38.8766 39.5987 39.863 40.7648 40.4013 41.9311C40.7153 42.6932 40.8048 43.5012 41.1188 44.3084C41.8368 46.2814 42.5092 48.4798 43.4515 50.319C43.945 51.2608 44.483 52.2475 45.1111 53.0998C45.4699 53.593 46.0977 53.8176 46.2326 54.6248C45.6048 55.522 45.5597 56.8677 45.2005 57.989C43.5858 63.0576 44.2141 69.3371 46.5014 73.0599C47.2189 74.1809 48.9236 76.6487 51.2112 75.7064C53.2299 74.8991 52.7813 72.3424 53.3639 70.0997C53.499 69.5609 53.4093 69.2025 53.6782 68.8436V68.9336C54.3062 70.1892 54.934 71.4006 55.5172 72.6564C56.9078 74.854 59.3297 77.1419 61.3481 78.6671C62.425 79.474 63.2771 80.8647 64.6229 81.3581V81.2233H64.5329C64.2637 80.8196 63.86 80.6404 63.5014 80.3261C62.6942 79.5191 61.7967 78.5322 61.169 77.6351C59.2854 75.1229 57.6253 72.3422 56.1452 69.4714C55.4277 68.0813 54.7994 66.5561 54.2165 65.1657C53.9471 64.6269 53.9471 63.8199 53.4988 63.551C52.8259 64.5377 51.8392 65.39 51.3458 66.6009C50.4939 68.5296 50.404 70.9069 50.09 73.3737C49.9105 73.419 50 73.3737 49.9103 73.4639C48.4753 73.1045 47.9818 71.6247 47.4432 70.3686C46.0975 67.1841 45.8732 62.0707 47.0398 58.3927C47.3538 57.4507 48.6996 54.4904 48.1613 53.5933C47.8921 52.7409 46.9946 52.2475 46.5014 51.5748C45.9185 50.7225 45.2902 49.6464 44.8868 48.7041C43.8101 46.1922 43.2718 43.4112 42.1057 40.8993C41.5674 39.733 40.6259 38.5223 39.863 37.4457C39.0109 36.2347 38.0689 35.3822 37.396 33.9469C37.172 33.4537 36.8577 32.6463 37.2166 32.1079C37.3063 31.7491 37.4855 31.6147 37.8446 31.525C38.4278 31.0313 40.0876 31.6593 40.6702 31.9285C42.33 32.6009 43.7204 33.2294 45.1111 34.1712C45.7388 34.6198 46.4117 35.4721 47.2189 35.6964H48.161C49.5965 36.0102 51.2109 35.7862 52.5567 36.1896C54.9343 36.952 57.087 38.0735 59.016 39.2847C64.892 43.0075 69.7358 48.3004 73.0106 54.6248C73.5489 55.656 73.7729 56.5986 74.2664 57.6747C75.2087 59.8728 76.3748 62.1155 77.3163 64.2685C78.2584 66.3764 79.1553 68.5296 80.5011 70.2791C81.174 71.2207 83.865 71.7144 85.0762 72.2078C85.9734 72.6113 87.3641 72.9704 88.1713 73.4636C89.6962 74.4052 91.2212 75.4823 92.6567 76.5136C93.3745 77.0519 95.6169 78.1734 95.7517 79.0703V79.0703Z" fill="#00546B"/>
<path d="M50.0011 40.0916C49.2387 40.0916 48.7007 40.1819 48.1624 40.3162V40.4059H48.2521C48.6112 41.1237 49.2387 41.6171 49.6871 42.2449C50.0462 42.9624 50.3599 43.6804 50.7191 44.3981C50.7637 44.353 50.8085 44.3084 50.8085 44.3084C51.4368 43.8596 51.7506 43.1421 51.7506 42.0655C51.4814 41.7517 51.4366 41.4377 51.2123 41.1237C50.9434 40.6748 50.3599 40.4508 50.0011 40.0916V40.0916Z" fill="#00546B"/>
</g>
</g>
<defs>
<filter id="filter0_d" x="0" y="0" width="135" height="135" filterUnits="userSpaceOnUse" color-interpolation-filters="sRGB">
<feFlood flood-opacity="0" result="BackgroundImageFix"/>
<feColorMatrix in="SourceAlpha" type="matrix" values="0 0 0 0 0 0 0 0 0 0 0 0 0 0 0 0 0 0 127 0"/>
<feOffset dy="6"/>
<feGaussianBlur stdDeviation="6"/>
<feColorMatrix type="matrix" values="0 0 0 0 0 0 0 0 0 0 0 0 0 0 0 0 0 0 0.18 0"/>
<feBlend mode="normal" in2="BackgroundImageFix" result="effect1_dropShadow"/>
<feBlend mode="normal" in="SourceGraphic" in2="effect1_dropShadow" result="shape"/>
</filter>
<clipPath id="clip0">
<rect width="66" height="64.9704" fill="white" transform="translate(35 29)"/>
</clipPath>
</defs>
</svg>
