<svg width="135" height="126" viewBox="0 0 135 126" fill="none" xmlns="http://www.w3.org/2000/svg">
<g filter="url(#filter0_d)">
<circle cx="67.5" cy="61.5" r="55.5" fill="white"/>
<g clip-path="url(#clip0)">
<path fill-rule="evenodd" clip-rule="evenodd" d="M102.486 59.4491C102.414 59.4635 102.342 59.6221 102.342 59.7085C102.328 60.2853 102.314 61.8138 102.314 62.8519C102.314 62.8808 102.357 62.9385 102.4 62.9385C102.616 62.9528 103.135 62.9672 103.582 62.9672C104.202 62.9672 104.563 62.8808 104.765 62.7944C105.284 62.5347 105.529 61.9724 105.529 61.3522C105.529 59.9538 104.548 59.4202 103.092 59.4202C102.991 59.4058 102.703 59.4058 102.486 59.4491V59.4491ZM106.207 65.8944C106.207 64.4669 105.154 63.6738 103.251 63.6738C103.164 63.6738 102.559 63.6594 102.414 63.6882C102.371 63.7027 102.314 63.7316 102.314 63.7749C102.314 64.7985 102.299 66.428 102.342 67.0624C102.371 67.3363 102.573 67.7257 102.818 67.841C103.078 67.9852 103.669 68.0139 104.073 68.0139C105.212 68.0139 106.207 67.3796 106.207 65.8944V65.8944ZM99.5451 58.6561C99.6892 58.6561 100.122 58.6993 101.232 58.6993C102.285 58.6993 103.121 58.6705 104.145 58.6705C105.399 58.6705 107.129 59.1174 107.129 60.9919C107.129 61.9147 106.48 62.6502 105.63 63.0107C105.587 63.025 105.587 63.0538 105.63 63.0682C106.841 63.3711 107.908 64.1208 107.908 65.5338C107.908 66.9182 107.043 67.7977 105.788 68.3457C105.024 68.6772 104.073 68.7925 103.107 68.7925C102.371 68.7925 100.396 68.7061 99.3 68.735C99.1847 68.6916 99.4009 68.1725 99.5017 68.0861C99.7614 68.0716 99.9631 68.0572 100.237 67.9707C100.627 67.8699 100.67 67.7544 100.727 67.1633C100.756 66.6586 100.756 64.8705 100.756 63.6018C100.756 61.8571 100.771 60.6747 100.756 60.098C100.742 59.6511 100.583 59.5068 100.266 59.4202C100.021 59.3771 99.6172 59.3193 99.2855 59.2761C99.2133 59.2039 99.4584 58.7136 99.5451 58.6561ZM91.2252 67.6247C91.5715 67.8985 92.2491 68.0138 92.8547 68.0138C93.6333 68.0138 94.4119 67.8699 95.1617 67.1919C95.926 66.5 96.4594 65.433 96.4594 63.7316C96.4594 62.1021 95.8394 60.7755 94.5705 59.9971C93.8496 59.5499 92.9268 59.3627 91.8597 59.3627C91.5426 59.3627 91.2397 59.3771 91.0524 59.4635C91.009 59.4924 90.9082 59.6221 90.9082 59.6941C90.8793 59.9825 90.8793 62.203 90.8793 63.5008C90.8793 64.8418 90.8793 66.7163 90.9082 66.9325C90.9082 67.1489 91.009 67.4805 91.2254 67.6247H91.2252ZM87.9521 58.656C88.2262 58.656 89.2787 58.6993 89.7834 58.6993C90.6919 58.6993 91.3407 58.6561 93.0564 58.6561C94.4983 58.6561 95.7095 59.0453 96.5747 59.7807C97.6272 60.6891 98.1753 61.9436 98.1753 63.4719C98.1753 65.6493 97.1803 66.9038 96.1853 67.6247C95.1906 68.36 93.8928 68.7925 92.0472 68.7925C91.0668 68.7925 89.3798 68.7638 87.981 68.7493H87.9667C87.8946 68.6196 88.082 68.1149 88.1973 68.1005C88.5723 68.0572 88.6732 68.0427 88.8607 67.9708C89.1634 67.8553 89.2212 67.6968 89.2645 67.1633C89.3076 66.1683 89.2932 64.9716 89.2932 63.6161C89.2932 62.6502 89.3076 60.7611 89.2787 60.1555C89.2355 59.651 89.0193 59.5211 88.5866 59.4346C88.3704 59.3914 88.082 59.3336 87.6784 59.2905C87.6206 59.1894 87.8801 58.7425 87.9521 58.6561V58.656Z" fill="#8E714E"/>
<path fill-rule="evenodd" clip-rule="evenodd" d="M70.5052 68.1868C70.1448 68.1435 69.8852 68.086 69.5681 67.9418C69.5248 67.9129 69.4526 67.7688 69.4526 67.711C69.4238 67.2063 69.4238 65.7645 69.4238 64.7985C69.4238 64.0198 69.2941 63.3421 68.9624 62.8663C68.5731 62.3182 68.0109 62.0012 67.2898 62.0012C66.6554 62.0012 65.8046 62.4337 65.0981 63.0393C65.0837 63.0537 64.9684 63.1548 64.9827 62.996C64.9827 62.8374 65.0116 62.5202 65.026 62.3038C65.0406 62.102 64.9251 62.0012 64.9251 62.0012C64.4637 62.2318 63.166 62.5346 62.6901 62.5777C62.3441 62.6501 62.2576 62.9817 62.6182 63.097H62.6326C63.0216 63.2123 63.2813 63.3421 63.4831 63.472C63.6273 63.5873 63.6129 63.7459 63.6129 63.8757C63.6273 64.957 63.6273 66.6152 63.5841 67.5237C63.5698 67.8842 63.4688 68.0138 63.2091 68.0715L63.2381 68.0571C63.0362 68.1004 62.8776 68.1435 62.6324 68.1724C62.5459 68.259 62.5459 68.7204 62.6324 68.8213C62.791 68.8213 63.6273 68.7781 64.3196 68.7781C65.2712 68.7781 65.7615 68.8213 66.0065 68.8213C66.1074 68.706 66.1363 68.2734 66.0787 68.1724C65.8046 68.1581 65.6027 68.1293 65.4154 68.0715C65.1559 68.0137 65.0837 67.8842 65.0691 67.5813C65.0406 66.817 65.0406 65.2021 65.0406 64.1063C65.0406 63.8035 65.127 63.6593 65.2134 63.5728C65.5451 63.2845 66.0787 63.0826 66.5545 63.0826C67.0159 63.0826 67.3185 63.2268 67.5493 63.4143C67.8665 63.6737 67.9674 64.0487 68.0107 64.3226C68.0827 64.9426 68.054 66.1682 68.054 67.2352C68.054 67.812 68.0107 67.9562 67.7946 68.0282C67.6935 68.0715 67.434 68.1293 67.1312 68.1579C67.0302 68.259 67.0591 68.706 67.1312 68.807C67.5493 68.807 68.0396 68.7637 68.7606 68.7637C69.6545 68.7637 70.2313 68.807 70.4621 68.807C70.534 68.7204 70.5629 68.3023 70.5052 68.1868V68.1868ZM74.4993 62.679C73.7352 62.679 73.2593 63.2701 73.2593 64.1927C73.2593 65.1301 73.6774 66.2115 74.8598 66.2115C75.0617 66.2115 75.4367 66.1249 75.6095 65.9231C75.8835 65.6637 76.071 65.1445 76.071 64.5965C76.071 63.3998 75.4798 62.6788 74.4993 62.6788V62.679ZM74.3984 69.052C74.1101 69.052 73.9081 69.1385 73.7784 69.2107C73.1727 69.5998 72.8988 69.9748 72.8988 70.422C72.8988 70.8399 73.0574 71.1715 73.4035 71.4599C73.8216 71.8204 74.3984 71.9935 75.1337 71.9935C76.6045 71.9935 77.2534 71.2004 77.2534 70.422C77.2534 69.8738 76.9793 69.5134 76.4171 69.3117C76.0134 69.1385 75.2781 69.052 74.3984 69.052V69.052ZM74.4993 72.801C73.6198 72.801 72.9852 72.6135 72.4374 72.1954C71.9038 71.7917 71.6732 71.186 71.6732 70.7679C71.6732 70.6526 71.7021 70.3352 71.9616 70.047C72.1201 69.8738 72.4663 69.5423 73.2882 68.9799C73.317 68.9656 73.3313 68.9512 73.3313 68.9221C73.3313 68.8934 73.3024 68.8645 73.2737 68.8502C72.596 68.5907 72.3942 68.1724 72.3363 67.9418V67.9129C72.3221 67.8263 72.2932 67.7399 72.4231 67.6534C72.524 67.5813 72.6682 67.4948 72.8267 67.394C73.0718 67.2496 73.3313 67.091 73.4899 66.9612C73.5188 66.9324 73.5188 66.9037 73.5188 66.8748C73.5188 66.8459 73.4899 66.817 73.461 66.8027C72.452 66.471 71.9473 65.7212 71.9473 64.5965C71.9473 63.8612 72.2788 63.1979 72.8699 62.7798C73.2737 62.4626 74.2831 62.0732 74.9463 62.0732H74.9896C75.6673 62.0876 76.0421 62.2318 76.5756 62.4193C76.864 62.5202 77.1381 62.5634 77.5131 62.5634C78.0752 62.5634 78.3204 62.3904 78.5221 62.1887C78.5367 62.2174 78.5656 62.2896 78.5799 62.477C78.5943 62.6645 78.5366 62.9384 78.3924 63.1402C78.2771 63.2988 78.0176 63.4143 77.7581 63.4143H77.6859C77.4263 63.3854 77.3109 63.3565 77.3109 63.3565L77.2534 63.3854C77.239 63.4143 77.2534 63.4431 77.2677 63.4863L77.2823 63.5152C77.311 63.6449 77.3687 64.0342 77.3687 64.1352C77.3687 65.3176 76.8929 65.8365 76.3882 66.2259C75.8979 66.5863 75.3357 66.817 74.7012 66.8748C74.6868 66.8748 74.6293 66.8748 74.4993 66.8892C74.4273 66.8892 74.3263 66.9037 74.3118 66.9037H74.2974C74.1821 66.9324 73.8938 67.0767 73.8938 67.3217C73.8938 67.5379 74.0235 67.7976 74.6435 67.8409C74.7732 67.8552 74.9029 67.8553 75.0473 67.8698C75.8691 67.9273 76.8929 67.9995 77.3687 68.1581C78.032 68.4031 78.4501 68.9943 78.4501 69.7009C78.4501 70.7681 77.686 71.7629 76.4171 72.3828C75.7971 72.6568 75.177 72.801 74.4993 72.801V72.801ZM82.7181 62.751C82.4154 62.751 82.1413 62.8229 81.9395 62.9671C81.3773 63.3132 81.0888 64.0054 81.0888 65.0146C81.0888 66.9037 82.0404 68.2303 83.3959 68.2303C83.7996 68.2303 84.1168 68.1148 84.3907 67.8842C84.8088 67.5379 85.0252 66.8459 85.0252 65.8798C85.0252 64.0054 84.0879 62.7509 82.7182 62.7509L82.7181 62.751ZM82.9777 68.9223C80.5265 68.9223 79.647 67.1199 79.647 65.4329C79.647 64.2506 80.1227 63.3421 81.0743 62.6932C81.7521 62.2751 82.5596 62.0445 83.2806 62.0445C85.1549 62.0445 86.4671 63.3854 86.4671 65.3176C86.4671 66.6296 85.9481 67.6677 84.9531 68.3023C84.4773 68.6195 83.6554 68.9223 82.9776 68.9223H82.9777V68.9223ZM57.283 62.7509C56.9802 62.7509 56.7063 62.8229 56.5043 62.9671C55.9421 63.3132 55.6537 64.0054 55.6537 65.0146C55.6537 66.9037 56.6052 68.2303 57.9607 68.2303C58.3645 68.2303 58.6816 68.1148 58.9557 67.8842C59.3737 67.5379 59.5901 66.8459 59.5901 65.8798C59.5901 64.0054 58.6673 62.7509 57.283 62.7509ZM57.5426 68.9223C55.0913 68.9223 54.2118 67.1199 54.2118 65.4329C54.2118 64.2506 54.6876 63.3421 55.6391 62.6932C56.317 62.2751 57.1245 62.0445 57.8454 62.0445C59.7199 62.0445 61.032 63.3854 61.032 65.3176C61.032 66.6296 60.5129 67.6677 59.5179 68.3023C59.0565 68.6195 58.2346 68.9223 57.5426 68.9223ZM41.0616 68.7781C41.0327 68.7349 41.0038 68.6051 41.0184 68.4465C41.0184 68.331 41.0473 68.259 41.0616 68.2303C41.3645 68.1868 41.523 68.1435 41.696 68.1004C41.9845 68.0282 42.0998 67.8698 42.1141 67.5093C42.1576 66.6442 42.1576 65.0002 42.143 63.8612V63.8323C42.143 63.7026 42.143 63.5438 41.9845 63.4285C41.7537 63.2845 41.4798 63.1548 41.1193 63.0535C40.9896 63.0106 40.903 62.9384 40.9174 62.852C40.9174 62.7654 41.004 62.6645 41.1915 62.6356C41.6673 62.5923 42.9071 62.2896 43.3974 62.0732C43.4263 62.102 43.4696 62.1887 43.4696 62.304L43.4552 62.4624C43.4407 62.6212 43.4263 62.8087 43.4263 62.996C43.4263 63.0537 43.4841 63.097 43.5416 63.097C43.5705 63.097 43.5995 63.0826 43.6282 63.0681C44.551 62.3471 45.3873 62.0876 45.8198 62.0876C46.5265 62.0876 47.0745 62.4193 47.4926 63.1113C47.5213 63.1548 47.5502 63.1692 47.5935 63.1692C47.6223 63.1692 47.6654 63.1548 47.6799 63.1259C48.5307 62.477 49.3815 62.0876 49.9437 62.0876C51.2846 62.0876 52.0777 63.0826 52.0777 64.7696C52.0777 65.2454 52.0777 65.8654 52.0634 66.4279C52.0634 66.9324 52.049 67.3938 52.049 67.7256C52.049 67.7974 52.1498 68.0282 52.3084 68.0715C52.5102 68.1724 52.7843 68.2157 53.1448 68.2734H53.1591C53.188 68.3743 53.1304 68.7492 53.0727 68.8213C52.9862 68.8213 52.8563 68.8213 52.7123 68.807C52.3473 68.7879 51.9818 68.7783 51.6163 68.7781C50.7224 68.7781 50.261 68.7924 49.8138 68.8213C49.7852 68.706 49.7707 68.3599 49.8138 68.2734C50.0735 68.2303 50.2032 68.1868 50.362 68.1437C50.6504 68.0571 50.7224 67.9273 50.737 67.5524C50.737 67.2785 50.7945 64.9426 50.7079 64.3802C50.6215 63.8035 50.1888 63.1259 49.2371 63.1259C48.8766 63.1259 48.3145 63.2701 47.7665 63.6881C47.7377 63.717 47.7087 63.789 47.7087 63.8323V63.8468C47.7665 64.1495 47.7665 64.4957 47.7665 65.0292V65.9663C47.7665 66.6153 47.752 67.2209 47.7665 67.6821C47.7665 67.9995 47.954 68.0715 48.1126 68.1293C48.1991 68.1435 48.2566 68.1581 48.3288 68.1724C48.4585 68.2013 48.5884 68.2303 48.7902 68.2734C48.8191 68.3312 48.8191 68.5185 48.7759 68.6771C48.7613 68.7637 48.7324 68.8068 48.718 68.8213C48.2279 68.807 47.7232 68.7924 46.9879 68.7924C46.7716 68.7924 46.3966 68.807 46.0795 68.807C45.8198 68.807 45.5748 68.8213 45.4307 68.8213C45.4162 68.7924 45.3873 68.6917 45.3873 68.5329C45.3873 68.4032 45.4162 68.3023 45.4451 68.2734C45.5171 68.259 45.5748 68.2446 45.647 68.2446C45.8198 68.2157 45.9641 68.1868 46.1082 68.1581C46.3535 68.086 46.4399 67.9562 46.4543 67.639C46.4976 66.9181 46.5409 64.8562 46.4399 64.337C46.267 63.5007 45.7912 63.0826 45.0268 63.0826C44.5799 63.0826 44.0174 63.2988 43.5562 63.6451C43.484 63.7026 43.4263 63.8467 43.4263 63.9765V64.8273C43.4263 65.8654 43.4263 67.1632 43.4407 67.7256C43.4552 67.8984 43.5127 68.1004 43.8445 68.1724C43.9166 68.1868 44.032 68.2157 44.1762 68.2303L44.4355 68.2734C44.4646 68.3599 44.4501 68.706 44.3924 68.8213C44.2482 68.8213 44.0752 68.807 43.8732 68.807C43.5705 68.7924 43.1812 68.7781 42.7487 68.7781C42.244 68.7781 41.8835 68.7924 41.5951 68.807C41.3932 68.7781 41.2346 68.7781 41.0616 68.7781V68.7781Z" fill="#442D22"/>
<path fill-rule="evenodd" clip-rule="evenodd" d="M33.4771 72.2387L32.886 72.0367C32.886 72.0367 32.9582 69.0233 31.8766 68.807C31.1558 67.9706 31.9922 33.3362 34.5875 68.6915C34.5875 68.6915 33.6935 69.1384 33.5349 69.9028C33.3618 70.6526 33.4771 72.2387 33.4771 72.2387V72.2387Z" fill="white"/>
<path fill-rule="evenodd" clip-rule="evenodd" d="M33.4771 72.2387L32.886 72.0367C32.886 72.0367 32.9582 69.0233 31.8766 68.807C31.1558 67.9706 31.9922 33.3362 34.5875 68.6915C34.5875 68.6915 33.6935 69.1384 33.5349 69.9028C33.3618 70.6526 33.4771 72.2387 33.4771 72.2387V72.2387Z" fill="#A6A385"/>
<path fill-rule="evenodd" clip-rule="evenodd" d="M33.7944 69.3261C33.7944 69.3261 38.9709 65.9232 37.7595 58.8433C36.5917 53.696 33.8376 52.0089 33.5348 51.36C33.2033 50.8986 32.8859 50.0913 32.8859 50.0913L33.1023 64.4091C33.1023 64.4236 32.6553 68.7925 33.7945 69.3263" fill="white"/>
<path fill-rule="evenodd" clip-rule="evenodd" d="M33.7944 69.3261C33.7944 69.3261 38.9709 65.9232 37.7595 58.8433C36.5917 53.696 33.8376 52.0089 33.5348 51.36C33.2033 50.8986 32.8859 50.0913 32.8859 50.0913L33.1023 64.4091C33.1023 64.4236 32.6553 68.7925 33.7945 69.3263" fill="#499D4A"/>
<path fill-rule="evenodd" clip-rule="evenodd" d="M32.5833 69.5135C32.5833 69.5135 27.724 66.1971 28.0124 60.3575C28.2863 54.5178 31.718 51.6485 32.3813 51.1294C32.814 50.668 32.8283 50.4949 32.8572 50.0335C33.16 50.6824 33.1024 59.7375 33.1455 60.8044C33.2752 64.9138 32.9149 68.735 32.5833 69.5135Z" fill="white"/>
<path fill-rule="evenodd" clip-rule="evenodd" d="M32.5833 69.5135C32.5833 69.5135 27.724 66.1971 28.0124 60.3575C28.2863 54.5178 31.718 51.6485 32.3813 51.1294C32.814 50.668 32.8283 50.4949 32.8572 50.0335C33.16 50.6824 33.1024 59.7375 33.1455 60.8044C33.2752 64.9138 32.9149 68.735 32.5833 69.5135Z" fill="#58AA50"/>
</g>
</g>
<defs>
<filter id="filter0_d" x="0" y="0" width="135" height="135" filterUnits="userSpaceOnUse" color-interpolation-filters="sRGB">
<feFlood flood-opacity="0" result="BackgroundImageFix"/>
<feColorMatrix in="SourceAlpha" type="matrix" values="0 0 0 0 0 0 0 0 0 0 0 0 0 0 0 0 0 0 127 0"/>
<feOffset dy="6"/>
<feGaussianBlur stdDeviation="6"/>
<feColorMatrix type="matrix" values="0 0 0 0 0 0 0 0 0 0 0 0 0 0 0 0 0 0 0.18 0"/>
<feBlend mode="normal" in2="BackgroundImageFix" result="effect1_dropShadow"/>
<feBlend mode="normal" in="SourceGraphic" in2="effect1_dropShadow" result="shape"/>
</filter>
<clipPath id="clip0">
<rect width="80" height="22.816" fill="white" transform="translate(28 50)"/>
</clipPath>
</defs>
</svg>
