<svg width="135" height="135" viewBox="0 0 135 135" fill="none" xmlns="http://www.w3.org/2000/svg">
<g filter="url(#filter0_d)">
<circle cx="67.5" cy="61.5" r="55.5" fill="white"/>
<g clip-path="url(#clip0)">
<path d="M82.2166 53.5524C80.3138 53.505 78.839 53.6953 77.6021 54.2185C77.2452 54.3611 76.6743 54.3613 76.6267 54.8133C76.817 55.0036 76.8408 55.3128 77.0073 55.5744C77.2931 56.05 77.7922 56.6923 78.2442 57.0255C78.7437 57.406 79.2434 57.7865 79.7665 58.1195C80.6942 58.6905 81.741 59.0234 82.6448 59.5943C83.1683 59.9271 83.6913 60.3556 84.2146 60.7123C84.4763 60.9023 84.6427 61.2118 84.9759 61.3306V61.2594C84.8092 61.0452 84.7616 60.736 84.5953 60.4982C84.3576 60.2603 84.1195 60.0462 83.8816 59.8083C83.1918 58.8808 82.3356 58.0719 81.4079 57.406C80.6468 56.8826 78.9816 56.1691 78.6724 55.2889C78.6724 55.2889 78.6485 55.2652 78.6249 55.2415C79.1481 55.1939 79.7665 55.0036 80.2662 54.8608C81.0749 54.6466 81.8122 54.6943 82.6448 54.4802C83.0253 54.385 83.4059 54.2661 83.7864 54.1472V53.9332C83.3585 53.505 83.0492 52.9342 82.5972 52.5298C81.3841 51.4829 80.0519 50.4603 78.6724 49.604C77.935 49.1282 76.9834 48.819 76.1985 48.4147C75.9133 48.2718 75.4374 48.2006 75.271 47.9627C74.8427 47.4395 74.6048 46.7497 74.2957 46.1312C73.606 44.8228 72.9398 43.3719 72.3451 41.9925C71.9172 41.0647 71.6555 40.1369 71.1321 39.2808C68.6821 35.237 66.018 32.787 61.9268 30.3845C61.0466 29.8851 60 29.6709 58.8821 29.4094C58.2876 29.3855 57.6928 29.338 57.0982 29.3141C56.7175 29.1476 56.3369 28.6957 56.0039 28.4816C54.6483 27.6252 51.1514 25.7701 50.1524 28.2201C49.5101 29.7661 51.104 31.2883 51.6509 32.0735C52.0556 32.6205 52.5786 33.2389 52.8641 33.8574C53.0306 34.2616 53.0781 34.69 53.2446 35.1181C53.6254 36.1644 53.9819 37.3302 54.4816 38.3056C54.7433 38.805 55.0287 39.3282 55.3617 39.7802C55.552 40.0417 55.8849 40.1608 55.9564 40.5889C55.6235 41.0647 55.5996 41.7784 55.4091 42.3729C54.5529 45.0608 54.8861 48.3909 56.099 50.3651C56.4795 50.9596 57.3835 52.2682 58.5966 51.7685C59.6671 51.3405 59.4292 49.9846 59.7382 48.7953C59.8099 48.5096 59.7623 48.3195 59.9049 48.1292V48.1769C60.2379 48.8427 60.5708 49.4852 60.8801 50.1511C61.6176 51.3165 62.9019 52.5298 63.9723 53.3386C64.5433 53.7665 64.9952 54.504 65.7089 54.7657V54.6942H65.6612C65.5184 54.4801 65.3043 54.385 65.1141 54.2184C64.6861 53.7905 64.2102 53.2671 63.8773 52.7913C62.8784 51.4591 61.998 49.9845 61.2131 48.4621C60.8327 47.7249 60.4995 46.9161 60.1903 46.1788C60.0475 45.893 60.0475 45.4651 59.8097 45.3225C59.4529 45.8457 58.9297 46.2977 58.668 46.9399C58.2163 47.9627 58.1685 49.2234 58.002 50.5315C57.9069 50.5556 57.9543 50.5315 57.9067 50.5793C57.1458 50.3888 56.8841 49.604 56.5985 48.9379C55.8848 47.2492 55.7658 44.5375 56.3845 42.587C56.551 42.0875 57.2647 40.5177 56.9792 40.0419C56.8365 39.5899 56.3606 39.3282 56.099 38.9715C55.7899 38.5195 55.4567 37.9489 55.2428 37.4492C54.6718 36.1171 54.3863 34.6423 53.768 33.3103C53.4825 32.6917 52.9832 32.0497 52.5786 31.4788C52.1268 30.8366 51.6272 30.3845 51.2704 29.6234C51.1516 29.3618 50.9849 28.9336 51.1752 28.6482C51.2228 28.4578 51.3178 28.3866 51.5083 28.339C51.8175 28.0772 52.6977 28.4103 53.0067 28.553C53.8869 28.9096 54.6242 29.2429 55.3617 29.7423C55.6946 29.9802 56.0515 30.4322 56.4795 30.5511H56.9791C57.7403 30.7175 58.5965 30.5987 59.3102 30.8127C60.571 31.217 61.7126 31.8117 62.7355 32.454C65.8516 34.4282 68.4203 37.2351 70.1569 40.5889C70.4424 41.1358 70.5612 41.6356 70.8229 42.2063C71.3226 43.3719 71.9409 44.5613 72.4402 45.703C72.9398 46.8208 73.4155 47.9627 74.1291 48.8905C74.486 49.3898 75.913 49.6516 76.5554 49.9133C77.0311 50.1272 77.7686 50.3177 78.1967 50.5792C79.0054 51.0785 79.8141 51.6497 80.5753 52.1966C80.9559 52.4821 82.1451 53.0768 82.2166 53.5524V53.5524Z" fill="#00546B"/>
<path d="M57.9551 32.8819C57.5508 32.8819 57.2655 32.9298 56.98 33.001V33.0486H57.0276C57.2181 33.4292 57.5508 33.6909 57.7886 34.0238C57.979 34.4043 58.1454 34.7851 58.3359 35.1657C58.3595 35.1418 58.3833 35.1181 58.3833 35.1181C58.7165 34.8801 58.8829 34.4996 58.8829 33.9286C58.7402 33.7623 58.7164 33.5957 58.5974 33.4292C58.4548 33.1912 58.1454 33.0724 57.9551 32.8819V32.8819Z" fill="#00546B"/>
</g>
<g clip-path="url(#clip1)">
<path d="M62.539 77.763H67.8229L65.029 73.268L59.9012 81.3951H57.5675L63.8046 71.6327C64.0757 71.2383 64.5277 71 65.029 71C65.5138 71 65.9658 71.2301 66.2288 71.6163L72.4905 81.3951H70.1568L69.0558 79.5791H63.7062L62.5392 77.763H62.539ZM86.7807 79.5789V71.0985H84.8003V80.409C84.8003 80.6637 84.8989 80.9103 85.0879 81.0993C85.2768 81.2883 85.5316 81.3951 85.811 81.3951H94.842L96.009 79.5791H86.7805L86.7807 79.5789ZM54.0174 78.0587C55.9405 78.0587 57.5018 76.5056 57.5018 74.5827C57.5018 72.6597 55.9405 71.0984 54.0174 71.0984H45.3537V81.3953H47.3334V72.9148H53.8861C54.8065 72.9148 55.546 73.6627 55.546 74.5831C55.546 75.5033 54.8065 76.2511 53.8861 76.2511L48.3032 76.2429L54.2147 81.3953H57.0909L53.1136 78.059H54.0176L54.0174 78.0587ZM33.1674 81.3951C30.3249 81.3953 28.0181 79.0943 28.0181 76.2511C28.0181 73.4077 30.3249 71.0987 33.1674 71.0987H39.1522C41.9952 71.0987 44.3003 73.4077 44.3003 76.2511C44.3003 79.0943 41.9952 81.3951 39.152 81.3951H33.1674ZM39.0191 79.5791C40.8606 79.5791 42.3521 78.0916 42.3521 76.2509C42.3521 74.4103 40.8606 72.9148 39.0191 72.9148H33.2998C31.4589 72.9148 29.9666 74.4103 29.9666 76.2511C29.9666 78.0916 31.4589 79.5791 33.2997 79.5791H39.0189H39.0191ZM76.6239 81.3951C73.7808 81.3951 71.4715 79.0943 71.4715 76.2511C71.4715 73.4077 73.7808 71.0987 76.6239 71.0987H83.7322L82.5734 72.9148H76.7554C74.9147 72.9148 73.4191 74.4103 73.4191 76.2511C73.4191 78.0916 74.9147 79.5791 76.7554 79.5791H83.8964L82.7294 81.3951H76.6239ZM100.841 79.5791C99.3208 79.5791 98.0306 78.5602 97.6362 77.1549H106.1L107.267 75.3388H97.6362C98.0306 73.9418 99.3208 72.9148 100.841 72.9148H106.651L107.826 71.0984H100.709C97.8661 71.0984 95.557 73.4075 95.557 76.2507C95.557 79.0941 97.8661 81.395 100.709 81.395H106.815L107.982 79.5791H100.841H100.841Z" fill="#EA1B22"/>
</g>
</g>
<defs>
<filter id="filter0_d" x="0" y="0" width="135" height="135" filterUnits="userSpaceOnUse" color-interpolation-filters="sRGB">
<feFlood flood-opacity="0" result="BackgroundImageFix"/>
<feColorMatrix in="SourceAlpha" type="matrix" values="0 0 0 0 0 0 0 0 0 0 0 0 0 0 0 0 0 0 127 0"/>
<feOffset dy="6"/>
<feGaussianBlur stdDeviation="6"/>
<feColorMatrix type="matrix" values="0 0 0 0 0 0 0 0 0 0 0 0 0 0 0 0 0 0 0.18 0"/>
<feBlend mode="normal" in2="BackgroundImageFix" result="effect1_dropShadow"/>
<feBlend mode="normal" in="SourceGraphic" in2="effect1_dropShadow" result="shape"/>
</filter>
<clipPath id="clip0">
<rect width="35" height="34.454" fill="white" transform="translate(50 27)"/>
</clipPath>
<clipPath id="clip1">
<rect width="80" height="10.464" fill="white" transform="translate(28 71)"/>
</clipPath>
</defs>
</svg>
